<svg width="23" height="23" viewBox="0 0 23 23" fill="none" xmlns="http://www.w3.org/2000/svg">
<path d="M1.96667 9.66633H4.16667V16.9999H2.7C2.50551 16.9999 2.31898 17.0964 2.18146 17.2683C2.04393 17.4403 1.96667 17.6734 1.96667 17.9165C1.96667 18.1597 2.04393 18.3928 2.18146 18.5647C2.31898 18.7367 2.50551 18.8332 2.7 18.8332H20.3C20.4945 18.8332 20.681 18.7367 20.8185 18.5647C20.9561 18.3928 21.0333 18.1597 21.0333 17.9165C21.0333 17.6734 20.9561 17.4403 20.8185 17.2683C20.681 17.0964 20.4945 16.9999 20.3 16.9999H18.8333V9.66633H21.0333C21.1929 9.66613 21.348 9.60089 21.4753 9.48049C21.6025 9.36009 21.6948 9.19112 21.7382 8.9992C21.7817 8.80728 21.7738 8.60288 21.7159 8.41702C21.6581 8.23116 21.5532 8.07398 21.4174 7.96931L11.8841 0.635788C11.7686 0.547004 11.6356 0.5 11.5 0.5C11.3644 0.5 11.2314 0.547004 11.1159 0.635788L1.58258 7.96931C1.44676 8.07398 1.34195 8.23116 1.28405 8.41702C1.22616 8.60288 1.21833 8.80728 1.26177 8.9992C1.30521 9.19112 1.39753 9.36009 1.52474 9.48049C1.65196 9.60089 1.80711 9.66613 1.96667 9.66633ZM5.63333 9.66633H8.56667V16.9999H5.63333V9.66633ZM12.9667 9.66633V16.9999H10.0333V9.66633H12.9667ZM17.3667 16.9999H14.4333V9.66633H17.3667V16.9999ZM11.5 2.49209L18.4428 7.83295H4.55717L11.5 2.49209ZM22.5 21.5833C22.5 21.8264 22.4227 22.0596 22.2852 22.2315C22.1477 22.4034 21.9612 22.5 21.7667 22.5H1.23333C1.03884 22.5 0.852315 22.4034 0.714788 22.2315C0.577262 22.0596 0.5 21.8264 0.5 21.5833C0.5 21.3402 0.577262 21.107 0.714788 20.9351C0.852315 20.7632 1.03884 20.6666 1.23333 20.6666H21.7667C21.9612 20.6666 22.1477 20.7632 22.2852 20.9351C22.4227 21.107 22.5 21.3402 22.5 21.5833Z" fill="#015AB1"/>
</svg>
