<svg width="17" height="22" viewBox="0 0 17 22" fill="none" xmlns="http://www.w3.org/2000/svg">
<path d="M3.78574 13.3571C3.78574 12.732 4.03408 12.1324 4.47613 11.6904C4.91818 11.2483 5.51773 11 6.14288 11H10.8572C11.4823 11 12.0819 11.2483 12.5239 11.6904C12.966 12.1324 13.2143 12.732 13.2143 13.3571V16.5C13.2143 17.1252 12.966 17.7247 12.5239 18.1668C12.0819 18.6088 11.4823 18.8571 10.8572 18.8571H6.14288C5.51773 18.8571 4.91818 18.6088 4.47613 18.1668C4.03408 17.7247 3.78574 17.1252 3.78574 16.5V13.3571ZM6.14288 12.5714C5.9345 12.5714 5.73465 12.6542 5.5873 12.8016C5.43995 12.9489 5.35717 13.1488 5.35717 13.3571V16.5C5.35717 16.7084 5.43995 16.9082 5.5873 17.0556C5.73465 17.2029 5.9345 17.2857 6.14288 17.2857H8.50003V12.5714H6.14288ZM10.0715 12.5714V17.2857H10.8572C11.0656 17.2857 11.2654 17.2029 11.4128 17.0556C11.5601 16.9082 11.6429 16.7084 11.6429 16.5V13.3571C11.6429 13.1488 11.5601 12.9489 11.4128 12.8016C11.2654 12.6542 11.0656 12.5714 10.8572 12.5714H10.0715ZM0.642883 3.92857C0.642883 2.88665 1.05679 1.8874 1.79354 1.15065C2.53029 0.413902 3.52953 0 4.57146 0H9.55603C10.5975 0.000222426 11.5962 0.413965 12.3327 1.15029L15.2069 4.02443C15.9432 4.76094 16.3569 5.75969 16.3572 6.80114V18.0714C16.3572 19.1133 15.9433 20.1126 15.2065 20.8493C14.4698 21.5861 13.4705 22 12.4286 22H4.57146C3.52953 22 2.53029 21.5861 1.79354 20.8493C1.05679 20.1126 0.642883 19.1133 0.642883 18.0714V3.92857ZM4.57146 1.57143C3.9463 1.57143 3.34675 1.81977 2.9047 2.26182C2.46265 2.70387 2.21431 3.30342 2.21431 3.92857V18.0714C2.21431 18.6966 2.46265 19.2961 2.9047 19.7382C3.34675 20.1802 3.9463 20.4286 4.57146 20.4286H12.4286C13.0538 20.4286 13.6533 20.1802 14.0954 19.7382C14.5374 19.2961 14.7857 18.6966 14.7857 18.0714V6.80114C14.7852 6.1762 14.5365 5.57705 14.0943 5.13543L11.2233 2.26129C11.0043 2.04244 10.7444 1.86887 10.4583 1.75051C10.1722 1.63214 9.86562 1.57129 9.55603 1.57143H4.57146Z" fill="#015AB1"/>
</svg>
