<svg width="21" height="16" viewBox="0 0 21 16" fill="none" xmlns="http://www.w3.org/2000/svg">
<path d="M12.5 1H4.5C3.568 1 3.102 1 2.734 1.17733C2.49137 1.29473 2.27093 1.46673 2.08528 1.68352C1.89963 1.90032 1.7524 2.15765 1.652 2.44083C1.5 2.869 1.5 3.41267 1.5 4.5C2.29565 4.5 3.05871 4.86875 3.62132 5.52513C4.18393 6.1815 4.5 7.07174 4.5 8C4.5 8.92826 4.18393 9.8185 3.62132 10.4749C3.05871 11.1313 2.29565 11.5 1.5 11.5C1.5 12.5873 1.5 13.131 1.652 13.5592C1.7524 13.8423 1.89963 14.0997 2.08528 14.3165C2.27093 14.5333 2.49137 14.7053 2.734 14.8227C3.102 15 3.568 15 4.5 15H12.5M12.5 1H16.5C17.432 1 17.898 1 18.265 1.17733C18.5078 1.2946 18.7284 1.46654 18.9143 1.68334C19.1001 1.90014 19.2475 2.15754 19.348 2.44083C19.5 2.869 19.5 3.41267 19.5 4.5C18.7044 4.5 17.9413 4.86875 17.3787 5.52513C16.8161 6.1815 16.5 7.07174 16.5 8C16.5 8.92826 16.8161 9.8185 17.3787 10.4749C17.9413 11.1313 18.7044 11.5 19.5 11.5C19.5 12.5873 19.5 13.131 19.348 13.5592C19.2475 13.8425 19.1001 14.0999 18.9143 14.3167C18.7284 14.5335 18.5078 14.7054 18.265 14.8227C17.898 15 17.432 15 16.5 15H12.5M12.5 1V15" stroke="#015AB1" stroke-width="2" stroke-linecap="round" stroke-linejoin="round"/>
</svg>
