<svg width="19" height="16" viewBox="0 0 19 16" fill="none" xmlns="http://www.w3.org/2000/svg">
<path d="M9.77 16C9.62733 16 9.50833 15.9523 9.413 15.857C9.317 15.761 9.269 15.642 9.269 15.5C9.269 15.358 9.317 15.239 9.413 15.143C9.509 15.047 9.62767 14.9993 9.769 15H15.885C16.0517 15 16.1957 14.9487 16.317 14.846C16.439 14.7433 16.5 14.6087 16.5 14.442V7.554C16.5 5.68067 15.8113 4.11633 14.434 2.861C13.056 1.605 11.4113 0.977 9.5 0.977C7.58867 0.977 5.944 1.60467 4.566 2.86C3.18867 4.116 2.5 5.68067 2.5 7.554V12.731C2.5 12.873 2.45233 12.9917 2.357 13.087C2.26167 13.1823 2.14267 13.2303 2 13.231C1.59133 13.231 1.239 13.0927 0.943 12.816C0.647667 12.54 0.5 12.1973 0.5 11.788V9.904C0.5 9.60533 0.597 9.34033 0.791 9.109C0.985667 8.87767 1.222 8.68933 1.5 8.544L1.517 7.315C1.535 6.27167 1.76167 5.305 2.197 4.415C2.63233 3.52567 3.21367 2.75133 3.941 2.092C4.669 1.43333 5.51 0.92 6.464 0.552C7.41867 0.184 8.43067 0 9.5 0C10.5693 0 11.5803 0.184 12.533 0.552C13.4857 0.92 14.3233 1.43233 15.046 2.089C15.7693 2.74633 16.3477 3.51967 16.781 4.409C17.2143 5.299 17.4483 6.26567 17.483 7.309L17.5 8.514C17.7653 8.63867 17.9987 8.806 18.2 9.016C18.4 9.22667 18.5 9.47933 18.5 9.774V11.939C18.5 12.2343 18.3997 12.487 18.199 12.697C17.999 12.9077 17.766 13.075 17.5 13.199V14.443C17.5 14.8777 17.3427 15.246 17.028 15.548C16.7133 15.85 16.3323 16.001 15.885 16.001L9.77 16ZM6.885 9.538C6.67833 9.538 6.49833 9.468 6.345 9.328C6.19167 9.188 6.115 9.01467 6.115 8.808C6.115 8.60133 6.19167 8.42467 6.345 8.278C6.49833 8.13133 6.67833 8.058 6.885 8.058C7.09167 8.058 7.27133 8.13133 7.424 8.278C7.57733 8.42467 7.654 8.60133 7.654 8.808C7.654 9.01467 7.57733 9.188 7.424 9.328C7.27067 9.468 7.09067 9.538 6.884 9.538M12.115 9.538C11.9083 9.538 11.7287 9.468 11.576 9.328C11.4227 9.188 11.346 9.01467 11.346 8.808C11.346 8.60133 11.4227 8.42467 11.576 8.278C11.7293 8.13133 11.9093 8.058 12.116 8.058C12.322 8.058 12.5017 8.13133 12.655 8.278C12.8083 8.42467 12.885 8.60133 12.885 8.808C12.885 9.01467 12.8083 9.188 12.655 9.328C12.5017 9.468 12.3217 9.538 12.115 9.538ZM4.217 7.95C4.12633 6.45267 4.60833 5.17633 5.663 4.121C6.71833 3.06567 8.014 2.538 9.55 2.538C10.8413 2.538 11.9853 2.92567 12.982 3.701C13.9787 4.47567 14.5873 5.494 14.808 6.756C13.4833 6.73933 12.254 6.40133 11.12 5.742C9.98667 5.08333 9.11667 4.16667 8.51 2.992C8.26867 4.146 7.767 5.15733 7.005 6.026C6.243 6.89467 5.31367 7.536 4.217 7.95Z" fill="#015AB1"/>
</svg>
