<svg width="13" height="20" viewBox="0 0 13 20" fill="none" xmlns="http://www.w3.org/2000/svg">
<path d="M6.5 0L5.6875 1.02066C5.6875 1.02066 4.30083 2.7825 2.90333 5.06683C1.50583 7.35115 0 10.0851 0 12.7096C0 14.6431 0.68482 16.4975 1.90381 17.8647C3.12279 19.2319 4.77609 20 6.5 20C8.22391 20 9.87721 19.2319 11.0962 17.8647C12.3152 16.4975 13 14.6431 13 12.7096C13 10.0851 11.4942 7.35115 10.0967 5.06683C9.2347 3.66249 8.30527 2.31177 7.3125 1.02066L6.5 0ZM6.5 3.80316C6.97667 4.43499 7.41 4.95747 8.32 6.43985C9.63083 8.57837 10.8333 11.3001 10.8333 12.7096C10.8333 15.407 8.905 17.5699 6.5 17.5699C4.095 17.5699 2.16667 15.407 2.16667 12.7096C2.16667 11.3001 3.36917 8.57837 4.68 6.43985C5.59 4.95747 6.02333 4.43499 6.5 3.80316Z" fill="#015AB1"/>
</svg>
