<svg width="21" height="20" viewBox="0 0 21 20" fill="none" xmlns="http://www.w3.org/2000/svg">
<path d="M1.83333 8.33303H3.83333V14.9999H2.5C2.32319 14.9999 2.15362 15.0877 2.0286 15.244C1.90357 15.4002 1.83333 15.6122 1.83333 15.8332C1.83333 16.0542 1.90357 16.2662 2.0286 16.4225C2.15362 16.5788 2.32319 16.6666 2.5 16.6666H18.5C18.6768 16.6666 18.8464 16.5788 18.9714 16.4225C19.0964 16.2662 19.1667 16.0542 19.1667 15.8332C19.1667 15.6122 19.0964 15.4002 18.9714 15.244C18.8464 15.0877 18.6768 14.9999 18.5 14.9999H17.1667V8.33303H19.1667C19.3117 8.33285 19.4528 8.27353 19.5684 8.16408C19.6841 8.05463 19.768 7.90102 19.8075 7.72654C19.847 7.55207 19.8399 7.36626 19.7872 7.19729C19.7346 7.02833 19.6393 6.88543 19.5158 6.79028L10.8492 0.123443C10.7441 0.0427307 10.6233 0 10.5 0C10.3767 0 10.2559 0.0427307 10.1508 0.123443L1.48417 6.79028C1.36069 6.88543 1.26541 7.02833 1.21278 7.19729C1.16014 7.36626 1.15303 7.55207 1.19252 7.72654C1.23201 7.90102 1.31594 8.05463 1.43159 8.16408C1.54723 8.27353 1.68828 8.33285 1.83333 8.33303ZM5.16667 8.33303H7.83333V14.9999H5.16667V8.33303ZM11.8333 8.33303V14.9999H9.16667V8.33303H11.8333ZM15.8333 14.9999H13.1667V8.33303H15.8333V14.9999ZM10.5 1.81099L16.8117 6.66632H4.18833L10.5 1.81099ZM20.5 19.1666C20.5 19.3877 20.4298 19.5996 20.3047 19.7559C20.1797 19.9122 20.0101 20 19.8333 20H1.16667C0.989856 20 0.820286 19.9122 0.695262 19.7559C0.570238 19.5996 0.5 19.3877 0.5 19.1666C0.5 18.9456 0.570238 18.7337 0.695262 18.5774C0.820286 18.4211 0.989856 18.3333 1.16667 18.3333H19.8333C20.0101 18.3333 20.1797 18.4211 20.3047 18.5774C20.4298 18.7337 20.5 18.9456 20.5 19.1666Z" fill="#0A6FD2"/>
</svg>
