<svg width="12" height="12" viewBox="0 0 12 12" fill="none" xmlns="http://www.w3.org/2000/svg">
<g clip-path="url(#clip0_294_236)">
<path d="M12 5.33273H8.49103L11.5299 3.5782L10.8626 2.42194L7.82367 4.17647L9.57778 1.1378L8.42152 0.470016L6.66741 3.50873V0H5.33259V3.50906L3.57778 0.470016L2.42189 1.13747L4.17637 4.17609L1.13742 2.42194L0.470016 3.57788L3.50892 5.33241H0V6.66727H3.50859L0.470016 8.4218L1.13742 9.57806L4.17605 7.82386L2.42152 10.8625L3.57778 11.53L5.33227 8.49098V12H6.66708V8.49127L8.42123 11.53L9.57741 10.8625L7.82297 7.82353L10.8619 9.57806L11.5294 8.4218L8.4907 6.66759H11.9993V5.33273H12ZM6 7.81547C4.9935 7.81547 4.17769 6.9997 4.17769 5.99316C4.17769 4.98666 4.9935 4.17084 6 4.17084C7.0065 4.17084 7.82227 4.98666 7.82227 5.99316C7.82227 6.9997 7.0065 7.81547 6 7.81547Z" fill="black"/>
</g>
<defs>
<clipPath id="clip0_294_236">
<rect width="12" height="12" fill="white"/>
</clipPath>
</defs>
</svg>
