<svg width="42" height="33" viewBox="0 0 42 33" fill="none" xmlns="http://www.w3.org/2000/svg">
<path d="M41.848 31.4342C41.848 31.7967 41.704 32.1443 41.4477 32.4006C41.1914 32.6569 40.8438 32.8009 40.4813 32.8009H2.21463C1.85217 32.8009 1.50455 32.6569 1.24825 32.4006C0.991949 32.1443 0.847961 31.7967 0.847961 31.4342C0.847961 31.0717 0.991949 30.7241 1.24825 30.4678C1.50455 30.2115 1.85217 30.0675 2.21463 30.0675H40.4813C40.8438 30.0675 41.1914 30.2115 41.4477 30.4678C41.704 30.7241 41.848 31.0717 41.848 31.4342ZM2.26588 12.6733C2.18459 12.3867 2.19918 12.0814 2.30743 11.8038C2.41567 11.5263 2.61164 11.2917 2.8655 11.1358L20.6322 0.202442C20.8475 0.0700766 21.0952 0 21.348 0C21.6007 0 21.8485 0.0700766 22.0638 0.202442L39.8304 11.1358C40.0844 11.2915 40.2805 11.5259 40.3889 11.8033C40.4974 12.0808 40.5122 12.386 40.4311 12.6727C40.3501 12.9593 40.1776 13.2116 39.94 13.3912C39.7023 13.5708 39.4125 13.6678 39.1146 13.6675H35.0146V24.6009H37.748C38.1104 24.6009 38.458 24.7448 38.7143 25.0011C38.9706 25.2574 39.1146 25.6051 39.1146 25.9675C39.1146 26.33 38.9706 26.6776 38.7143 26.9339C38.458 27.1902 38.1104 27.3342 37.748 27.3342H4.94796C4.5855 27.3342 4.23788 27.1902 3.98158 26.9339C3.72528 26.6776 3.58129 26.33 3.58129 25.9675C3.58129 25.6051 3.72528 25.2574 3.98158 25.0011C4.23788 24.7448 4.5855 24.6009 4.94796 24.6009H7.68129V13.6675H3.58129C3.28368 13.6676 2.99417 13.5706 2.75675 13.3911C2.51933 13.2117 2.34698 12.9596 2.26588 12.6733ZM24.0813 23.2342C24.0813 23.5967 24.2253 23.9443 24.4816 24.2006C24.7379 24.4569 25.0855 24.6009 25.448 24.6009C25.8104 24.6009 26.158 24.4569 26.4143 24.2006C26.6706 23.9443 26.8146 23.5967 26.8146 23.2342V15.0342C26.8146 14.6717 26.6706 14.3241 26.4143 14.0678C26.158 13.8115 25.8104 13.6675 25.448 13.6675C25.0855 13.6675 24.7379 13.8115 24.4816 14.0678C24.2253 14.3241 24.0813 14.6717 24.0813 15.0342V23.2342ZM15.8813 23.2342C15.8813 23.5967 16.0253 23.9443 16.2816 24.2006C16.5379 24.4569 16.8855 24.6009 17.248 24.6009C17.6104 24.6009 17.958 24.4569 18.2143 24.2006C18.4706 23.9443 18.6146 23.5967 18.6146 23.2342V15.0342C18.6146 14.6717 18.4706 14.3241 18.2143 14.0678C17.958 13.8115 17.6104 13.6675 17.248 13.6675C16.8855 13.6675 16.5379 13.8115 16.2816 14.0678C16.0253 14.3241 15.8813 14.6717 15.8813 15.0342V23.2342Z" fill="#015AB1"/>
</svg>
