<svg width="205" height="205" viewBox="0 0 205 205" fill="none" xmlns="http://www.w3.org/2000/svg">
<path d="M56.9443 56.9443H68.3332V68.3332H56.9443V56.9443ZM56.9443 136.667H68.3332V148.055H56.9443V136.667ZM136.667 56.9443H148.055V68.3332H136.667V56.9443Z" fill="black"/>
<path d="M34.1667 34.167H170.833V170.834H34.1667V34.167Z" fill="white" stroke="black" stroke-width="5.69444" stroke-linejoin="round"/>
<path d="M56.9443 56.9443H68.3332V68.3332H56.9443V56.9443ZM56.9443 136.667H68.3332V148.055H56.9443V136.667ZM136.667 56.9443H148.055V68.3332H136.667V56.9443Z" fill="#3F3F3F" stroke="black" stroke-width="5.69444" stroke-linejoin="round"/>
<path d="M51.2501 116.736C52.8225 116.736 54.0973 115.462 54.0973 113.889C54.0973 112.317 52.8225 111.042 51.2501 111.042C49.6776 111.042 48.4028 112.317 48.4028 113.889C48.4028 115.462 49.6776 116.736 51.2501 116.736Z" fill="black"/>
<path d="M45.5555 111.042C47.128 111.042 48.4027 109.767 48.4027 108.195C48.4027 106.622 47.128 105.348 45.5555 105.348C43.983 105.348 42.7083 106.622 42.7083 108.195C42.7083 109.767 43.983 111.042 45.5555 111.042Z" fill="black"/>
<path d="M56.9444 111.042C58.5169 111.042 59.7916 109.767 59.7916 108.195C59.7916 106.622 58.5169 105.348 56.9444 105.348C55.3719 105.348 54.0972 106.622 54.0972 108.195C54.0972 109.767 55.3719 111.042 56.9444 111.042Z" fill="black"/>
<path d="M96.8055 133.819C98.378 133.819 99.6527 132.545 99.6527 130.972C99.6527 129.4 98.378 128.125 96.8055 128.125C95.233 128.125 93.9583 129.4 93.9583 130.972C93.9583 132.545 95.233 133.819 96.8055 133.819Z" fill="black"/>
<path d="M113.889 111.042C115.461 111.042 116.736 109.767 116.736 108.195C116.736 106.622 115.461 105.348 113.889 105.348C112.316 105.348 111.042 106.622 111.042 108.195C111.042 109.767 112.316 111.042 113.889 111.042Z" fill="black"/>
<path d="M113.889 82.5694C115.461 82.5694 116.736 81.2947 116.736 79.7222C116.736 78.1497 115.461 76.875 113.889 76.875C112.316 76.875 111.042 78.1497 111.042 79.7222C111.042 81.2947 112.316 82.5694 113.889 82.5694Z" fill="black"/>
<path d="M91.1111 48.4025C92.6836 48.4025 93.9584 47.1277 93.9584 45.5552C93.9584 43.9828 92.6836 42.708 91.1111 42.708C89.5387 42.708 88.2639 43.9828 88.2639 45.5552C88.2639 47.1277 89.5387 48.4025 91.1111 48.4025Z" fill="black"/>
<path d="M130.972 93.9581C132.545 93.9581 133.819 92.6834 133.819 91.1109C133.819 89.5384 132.545 88.2637 130.972 88.2637C129.4 88.2637 128.125 89.5384 128.125 91.1109C128.125 92.6834 129.4 93.9581 130.972 93.9581Z" fill="black"/>
<path d="M148.055 93.9581C149.628 93.9581 150.903 92.6834 150.903 91.1109C150.903 89.5384 149.628 88.2637 148.055 88.2637C146.483 88.2637 145.208 89.5384 145.208 91.1109C145.208 92.6834 146.483 93.9581 148.055 93.9581Z" fill="black"/>
<path d="M148.055 128.125C149.628 128.125 150.903 126.85 150.903 125.278C150.903 123.705 149.628 122.431 148.055 122.431C146.483 122.431 145.208 123.705 145.208 125.278C145.208 126.85 146.483 128.125 148.055 128.125Z" fill="black"/>
<path d="M153.75 139.514C155.323 139.514 156.597 138.239 156.597 136.667C156.597 135.094 155.323 133.819 153.75 133.819C152.178 133.819 150.903 135.094 150.903 136.667C150.903 138.239 152.178 139.514 153.75 139.514Z" fill="black"/>
<path d="M159.444 162.292C161.017 162.292 162.292 161.017 162.292 159.445C162.292 157.872 161.017 156.598 159.444 156.598C157.872 156.598 156.597 157.872 156.597 159.445C156.597 161.017 157.872 162.292 159.444 162.292Z" fill="black"/>
<path d="M91.1111 162.292C92.6836 162.292 93.9584 161.017 93.9584 159.445C93.9584 157.872 92.6836 156.598 91.1111 156.598C89.5387 156.598 88.2639 157.872 88.2639 159.445C88.2639 161.017 89.5387 162.292 91.1111 162.292Z" fill="black"/>
<path d="M125.278 162.292C126.85 162.292 128.125 161.017 128.125 159.445C128.125 157.872 126.85 156.598 125.278 156.598C123.705 156.598 122.431 157.872 122.431 159.445C122.431 161.017 123.705 162.292 125.278 162.292Z" fill="black"/>
<path d="M130.972 156.597C132.545 156.597 133.819 155.322 133.819 153.75C133.819 152.177 132.545 150.902 130.972 150.902C129.4 150.902 128.125 152.177 128.125 153.75C128.125 155.322 129.4 156.597 130.972 156.597Z" fill="black"/>
<path d="M125.278 150.902C126.85 150.902 128.125 149.628 128.125 148.055C128.125 146.483 126.85 145.208 125.278 145.208C123.705 145.208 122.431 146.483 122.431 148.055C122.431 149.628 123.705 150.902 125.278 150.902Z" fill="black"/>
<path d="M45.5555 93.9581C47.128 93.9581 48.4027 92.6834 48.4027 91.1109C48.4027 89.5384 47.128 88.2637 45.5555 88.2637C43.983 88.2637 42.7083 89.5384 42.7083 91.1109C42.7083 92.6834 43.983 93.9581 45.5555 93.9581Z" fill="black"/>
<path d="M113.889 156.597C115.461 156.597 116.736 155.322 116.736 153.75C116.736 152.177 115.461 150.902 113.889 150.902C112.316 150.902 111.042 152.177 111.042 153.75C111.042 155.322 112.316 156.597 113.889 156.597Z" fill="black"/>
<path d="M34.1667 34.167H170.833V170.834H34.1667V34.167Z" stroke="black" stroke-width="5.69444" stroke-linejoin="round"/>
<path d="M45.5557 45.5557H79.7223V79.7223H45.5557V45.5557Z" stroke="black" stroke-width="5.69444" stroke-linejoin="round"/>
<path d="M56.9446 56.9443H68.3334V68.3332H56.9446V56.9443ZM45.5557 125.278H79.7223V159.444H45.5557V125.278Z" stroke="black" stroke-width="5.69444" stroke-linejoin="round"/>
<path d="M56.9443 136.667H68.3332V148.056H56.9443V136.667ZM125.278 45.5557H159.444V79.7223H125.278V45.5557Z" stroke="black" stroke-width="5.69444" stroke-linejoin="round"/>
<path d="M136.667 56.9443H148.056V68.3332H136.667V56.9443Z" stroke="black" stroke-width="5.69444" stroke-linejoin="round"/>
<path d="M51.25 102.5V96.8057H74.0278M56.9444 96.8057V91.1112M68.3333 96.8057V113.889M68.3333 108.195H74.0278M108.194 91.1112V85.4168M159.444 96.8057H153.75M119.583 119.583H125.278V113.889M79.7222 91.1112H85.4167M96.8056 91.1112H113.889M108.194 45.5557V56.9446H102.5M102.5 56.9446V79.7223M102.5 56.9446H91.1111M102.5 74.0279H91.1111V79.7223" stroke="black" stroke-width="5.69444" stroke-linecap="round" stroke-linejoin="round"/>
<path d="M102.5 62.6389H96.8055V51.25M79.7222 102.5H102.5M85.4166 102.5V113.889H79.7222M96.8055 102.5V108.194M91.1111 125.278V119.583H108.194V136.667H119.583V130.972H142.361V159.444" stroke="black" stroke-width="5.69444" stroke-linecap="round" stroke-linejoin="round"/>
<path d="M102.5 113.889V125.278H119.583M130.972 113.889H119.583V136.666H125.278M136.667 96.8053V108.194H142.361M142.361 108.194V119.583H136.667V130.972M142.361 108.194V102.5H148.056M148.056 142.361H136.667V148.055M91.1111 148.055H96.8055V153.75H102.5V142.361M159.444 91.1109V108.194H153.75M125.278 102.5V96.8053M159.444 119.583V125.278M153.75 148.055H159.444M113.889 62.6387V68.3331" stroke="black" stroke-width="5.69444" stroke-linecap="round" stroke-linejoin="round"/>
</svg>
