<svg width="18" height="19" viewBox="0 0 18 19" fill="none" xmlns="http://www.w3.org/2000/svg">
<path d="M17.7972 12.2708L15.9231 10.5906V8.36485C15.9209 6.8267 15.2827 5.34391 14.1318 4.20318C12.9809 3.06245 11.3991 2.34483 9.69231 2.18908V0.916687H8.30769V2.18908C6.60086 2.34483 5.01906 3.06245 3.86818 4.20318C2.71729 5.34391 2.07907 6.8267 2.07692 8.36485V10.5906L0.202846 12.2708C0.0730043 12.3872 3.92105e-05 12.545 0 12.7096V14.5717C0 14.7363 0.0729393 14.8941 0.202772 15.0105C0.332605 15.1269 0.508696 15.1923 0.692308 15.1923H5.53846V15.6746C5.5234 16.462 5.83297 17.2267 6.40785 17.8222C6.98273 18.4176 7.78248 18.802 8.65385 18.9015C9.13512 18.9443 9.62106 18.8963 10.0804 18.7606C10.5398 18.6249 10.9623 18.4045 11.321 18.1136C11.6796 17.8227 11.9664 17.4678 12.1628 17.0715C12.3592 16.6753 12.461 16.2466 12.4615 15.813V15.1923H17.3077C17.4913 15.1923 17.6674 15.1269 17.7972 15.0105C17.9271 14.8941 18 14.7363 18 14.5717V12.7096C18 12.545 17.927 12.3872 17.7972 12.2708ZM11.0769 15.813C11.0769 16.3069 10.8581 16.7805 10.4686 17.1297C10.0791 17.4789 9.55083 17.6751 9 17.6751C8.44917 17.6751 7.92089 17.4789 7.53139 17.1297C7.14189 16.7805 6.92308 16.3069 6.92308 15.813V15.1923H11.0769V15.813ZM16.6154 13.951H1.38462V12.9666L3.25869 11.2864C3.38853 11.17 3.4615 11.0122 3.46154 10.8476V8.36485C3.46154 7.04793 4.04505 5.78495 5.08372 4.85375C6.12238 3.92255 7.53111 3.39941 9 3.39941C10.4689 3.39941 11.8776 3.92255 12.9163 4.85375C13.9549 5.78495 14.5385 7.04793 14.5385 8.36485V10.8476C14.5385 11.0122 14.6115 11.17 14.7413 11.2864L16.6154 12.9666V13.951Z" fill="white"/>
</svg>
