<svg width="21" height="16" viewBox="0 0 21 16" fill="none" xmlns="http://www.w3.org/2000/svg">
<path d="M10.2746 3.50092C9.45419 3.50092 8.65219 3.7442 7.97003 4.2C7.28787 4.65581 6.75619 5.30366 6.44223 6.06164C6.12826 6.81961 6.04612 7.65367 6.20617 8.45833C6.36623 9.26299 6.7613 10.0021 7.34143 10.5822C7.92156 11.1624 8.66069 11.5574 9.46535 11.7175C10.27 11.8776 11.1041 11.7954 11.862 11.4815C12.62 11.1675 13.2679 10.6358 13.7237 9.95365C14.1795 9.27149 14.4228 8.46949 14.4228 7.64906C14.4228 6.54891 13.9857 5.49381 13.2078 4.71588C12.4299 3.93795 11.3748 3.50092 10.2746 3.50092ZM10.2746 10.0194C9.8058 10.0194 9.34751 9.88041 8.95771 9.61995C8.5679 9.35949 8.26409 8.98929 8.08468 8.55616C7.90527 8.12304 7.85833 7.64643 7.94979 7.18663C8.04125 6.72682 8.26701 6.30446 8.59851 5.97296C8.93001 5.64146 9.35237 5.4157 9.81218 5.32424C10.272 5.23278 10.7486 5.27972 11.1817 5.45913C11.6148 5.63853 11.985 5.94235 12.2455 6.33216C12.506 6.72196 12.645 7.18025 12.645 7.64906C12.645 8.27772 12.3952 8.88064 11.9507 9.32517C11.5062 9.7697 10.9033 10.0194 10.2746 10.0194Z" fill="#06396A"/>
<path d="M18.6667 0H2.07407C1.52496 0.00311123 0.999212 0.222628 0.61092 0.61092C0.222628 0.999212 0.00311123 1.52496 0 2.07407V13.9259C0.00311123 14.475 0.222628 15.0008 0.61092 15.3891C0.999212 15.7774 1.52496 15.9969 2.07407 16H18.6667C19.2158 15.9969 19.7415 15.7774 20.1298 15.3891C20.5181 15.0008 20.7376 14.475 20.7407 13.9259V2.07407C20.7376 1.52496 20.5181 0.999212 20.1298 0.61092C19.7415 0.222628 19.2158 0.00311123 18.6667 0ZM18.963 2.07407V4.05333H18.7141C18.5724 4.07106 18.4291 4.07106 18.2874 4.05333H18.1333C17.9995 4.02643 17.8685 3.98675 17.7422 3.93481H17.6C17.4307 3.85284 17.2781 3.74034 17.1496 3.60296C16.9738 3.42939 16.8341 3.22274 16.7385 2.99493C16.6429 2.76711 16.5933 2.52262 16.5926 2.27556C16.5929 2.11101 16.6169 1.94737 16.6637 1.78963H18.6667C18.7432 1.78957 18.8169 1.81915 18.8721 1.87218C18.9273 1.92521 18.9599 1.99756 18.963 2.07407ZM2.07407 1.77778H4.07704C4.12388 1.93551 4.14783 2.09916 4.14815 2.2637C4.14746 2.51077 4.09788 2.75525 4.00228 2.98307C3.90668 3.21089 3.76694 3.41754 3.59111 3.59111C3.45957 3.72496 3.30754 3.83698 3.14074 3.92296H2.98667C2.87063 3.98016 2.74685 4.02009 2.61926 4.04148H2.45333C2.31166 4.05921 2.16834 4.05921 2.02667 4.04148H1.77778V2.07407C1.77778 1.99549 1.80899 1.92013 1.86456 1.86456C1.92013 1.80899 1.99549 1.77778 2.07407 1.77778ZM1.77778 13.9259V11.9467H2.02667C2.16834 11.9289 2.31166 11.9289 2.45333 11.9467H2.60741C2.74259 11.9681 2.8742 12.0079 2.99852 12.0652H3.14074C3.30754 12.1512 3.45957 12.2632 3.59111 12.397C3.76694 12.5706 3.90668 12.7773 4.00228 13.0051C4.09788 13.2329 4.14746 13.4774 4.14815 13.7244C4.14783 13.889 4.12388 14.0526 4.07704 14.2104H2.07407C1.9975 14.2104 1.92388 14.1808 1.86864 14.1278C1.8134 14.0748 1.78084 14.0024 1.77778 13.9259ZM5.89037 14.2222C5.90255 14.0605 5.90255 13.898 5.89037 13.7363C5.89481 13.2551 5.80151 12.7779 5.61613 12.3338C5.43074 11.8897 5.15712 11.4878 4.81185 11.1526C4.63737 10.9759 4.44241 10.8208 4.23111 10.6904L4.02963 10.56C3.8912 10.4886 3.74874 10.4253 3.60296 10.3704L3.36593 10.2756C3.16043 10.2151 2.95035 10.1715 2.73778 10.1452C2.61561 10.133 2.49254 10.133 2.37037 10.1452H1.77778V5.89037H2.78518C2.94599 5.86296 3.10447 5.82334 3.25926 5.77185L3.52 5.68889C3.70113 5.62704 3.87579 5.54766 4.04148 5.45185L4.23111 5.34519C4.4523 5.19978 4.65872 5.03306 4.84741 4.84741C5.19268 4.51215 5.46629 4.1103 5.65168 3.66618C5.83707 3.22207 5.93037 2.74494 5.92593 2.2637C5.93811 2.10196 5.93811 1.93952 5.92593 1.77778H14.8859C14.8737 1.93952 14.8737 2.10196 14.8859 2.2637C14.8815 2.74494 14.9748 3.22207 15.1602 3.66618C15.3456 4.1103 15.6192 4.51215 15.9644 4.84741C16.15 5.03653 16.3568 5.20357 16.5807 5.34519L16.7704 5.45185C16.9361 5.54766 17.1107 5.62704 17.2919 5.68889L17.5526 5.77185C17.7116 5.81992 17.874 5.85558 18.0385 5.87852H19.0341V10.0978H18.4415C18.3193 10.086 18.1963 10.086 18.0741 10.0978C17.8615 10.1241 17.6514 10.1677 17.4459 10.2281L17.2089 10.323C17.0505 10.3842 16.8961 10.4555 16.7467 10.5363L16.5452 10.6667C16.3339 10.7971 16.1389 10.9522 15.9644 11.1289C15.6192 11.4641 15.3456 11.866 15.1602 12.3101C14.9748 12.7542 14.8815 13.2314 14.8859 13.7126C14.8737 13.8743 14.8737 14.0368 14.8859 14.1985L5.89037 14.2222ZM18.6667 14.2222H16.6637C16.6169 14.0645 16.5929 13.9008 16.5926 13.7363C16.5933 13.4892 16.6429 13.2447 16.7385 13.0169C16.8341 12.7891 16.9738 12.5825 17.1496 12.4089C17.2781 12.2715 17.4307 12.159 17.6 12.077H17.7422C17.8691 12.0267 17.9999 11.9871 18.1333 11.9585H18.2874C18.4291 11.9408 18.5724 11.9408 18.7141 11.9585H18.963V13.9259C18.963 14.0045 18.9317 14.0799 18.8762 14.1354C18.8206 14.191 18.7452 14.2222 18.6667 14.2222Z" fill="#06396A"/>
</svg>
