<svg width="16" height="16" viewBox="0 0 16 16" fill="none" xmlns="http://www.w3.org/2000/svg">
<path d="M4.00694 8.02185C4.01123 9.64047 3.64777 11.2377 2.94556 12.6861C2.91204 12.7612 2.8642 12.8286 2.80489 12.8843C2.74558 12.94 2.676 12.9829 2.60028 13.0104C2.52455 13.0379 2.44423 13.0495 2.36408 13.0444C2.28393 13.0394 2.20557 13.0178 2.13367 12.9811C2.06176 12.9443 1.99777 12.893 1.94549 12.8303C1.8932 12.7675 1.8537 12.6947 1.82931 12.6159C1.80492 12.5372 1.79615 12.4542 1.80351 12.3719C1.81088 12.2896 1.83423 12.2097 1.87218 12.1369C2.49132 10.859 2.81166 9.4498 2.80764 8.02185C2.80623 7.18915 2.98749 6.36686 3.33791 5.61629C3.68833 4.86572 4.19887 4.20622 4.83147 3.68696C4.89294 3.63632 4.9635 3.59863 5.03913 3.57604C5.11476 3.55346 5.19397 3.54643 5.27224 3.55534C5.35051 3.56426 5.4263 3.58895 5.4953 3.62801C5.56429 3.66707 5.62514 3.71974 5.67435 3.78299C5.72357 3.84625 5.7602 3.91887 5.78214 3.99669C5.80409 4.07451 5.81093 4.15602 5.80226 4.23656C5.79359 4.31711 5.7696 4.3951 5.73164 4.4661C5.69368 4.5371 5.6425 4.59971 5.58103 4.65036C5.0889 5.0541 4.69173 5.56701 4.41917 6.1508C4.14661 6.73458 4.0057 7.37418 4.00694 8.02185ZM8.20451 7.40478C8.04548 7.40478 7.89295 7.46979 7.78049 7.58552C7.66804 7.70124 7.60486 7.85819 7.60486 8.02185C7.60474 10.4259 7.01155 12.7906 5.88086 14.8944C5.80372 15.0376 5.78503 15.2065 5.82889 15.3639C5.87275 15.5212 5.97556 15.6542 6.11472 15.7336C6.25388 15.813 6.41798 15.8322 6.57092 15.7871C6.72386 15.742 6.85312 15.6362 6.93025 15.493C8.15923 13.2059 8.80399 10.6353 8.80417 8.02185C8.80417 7.85819 8.74099 7.70124 8.62853 7.58552C8.51608 7.46979 8.36355 7.40478 8.20451 7.40478ZM8.20451 4.93652C7.40932 4.93652 6.6467 5.26158 6.08442 5.84019C5.52214 6.4188 5.20625 7.20357 5.20625 8.02185C5.20625 8.1855 5.26943 8.34245 5.38188 8.45818C5.49434 8.5739 5.64686 8.63891 5.8059 8.63891C5.96494 8.63891 6.11746 8.5739 6.22992 8.45818C6.34238 8.34245 6.40555 8.1855 6.40555 8.02185C6.40555 7.53088 6.59509 7.06002 6.93246 6.71285C7.26983 6.36569 7.7274 6.17065 8.20451 6.17065C8.68163 6.17065 9.1392 6.36569 9.47657 6.71285C9.81394 7.06002 10.0035 7.53088 10.0035 8.02185C10.0097 10.4754 9.48451 12.8996 8.46611 15.1181C8.4325 15.1916 8.41328 15.2712 8.40955 15.3523C8.40582 15.4334 8.41766 15.5145 8.44439 15.5909C8.47111 15.6674 8.51221 15.7376 8.56532 15.7977C8.61844 15.8578 8.68253 15.9065 8.75395 15.9411C8.82536 15.9757 8.90269 15.9955 8.98154 15.9993C9.06038 16.0031 9.13918 15.991 9.21345 15.9635C9.28772 15.936 9.35599 15.8937 9.41438 15.839C9.47276 15.7844 9.52012 15.7184 9.55373 15.6449C10.6469 13.2615 11.2102 10.6574 11.2028 8.02185C11.2028 7.20357 10.8869 6.4188 10.3246 5.84019C9.76232 5.26158 8.9997 4.93652 8.20451 4.93652ZM8.20451 0C6.13769 0.00224598 4.15615 0.848123 2.69468 2.35202C1.23322 3.85593 0.411208 5.89501 0.409026 8.02185C0.410138 8.79241 0.28339 9.5575 0.0342426 10.2842C-0.0187369 10.4385 -0.00996218 10.6082 0.0586364 10.7559C0.127235 10.9036 0.250038 11.0172 0.400031 11.0717C0.550023 11.1262 0.714919 11.1172 0.858442 11.0466C1.00196 10.976 1.11236 10.8496 1.16534 10.6953C1.45952 9.8365 1.60933 8.93242 1.60833 8.02185C1.60833 6.22163 2.30328 4.49515 3.54031 3.22221C4.77733 1.94926 6.4551 1.23413 8.20451 1.23413C9.95393 1.23413 11.6317 1.94926 12.8687 3.22221C14.1057 4.49515 14.8007 6.22163 14.8007 8.02185C14.801 9.43172 14.6682 10.8383 14.4042 12.2217C14.3889 12.3013 14.389 12.3831 14.4045 12.4626C14.4199 12.542 14.4505 12.6176 14.4943 12.6849C14.5382 12.7523 14.5945 12.8101 14.66 12.855C14.7256 12.8999 14.7991 12.9311 14.8764 12.9468C14.9147 12.9544 14.9536 12.9583 14.9926 12.9584C15.1313 12.9582 15.2658 12.9085 15.3729 12.8178C15.4801 12.7271 15.5534 12.6009 15.5802 12.4609C15.8595 10.9987 16.0001 9.51201 16 8.02185C15.9976 5.89507 15.1755 3.85611 13.7141 2.35225C12.2527 0.848393 10.2713 0.00244973 8.20451 0ZM5.68597 9.88615C5.53045 9.85432 5.36901 9.88717 5.23696 9.97751C5.10491 10.0679 5.01302 10.2083 4.98138 10.3682C4.73806 11.6005 4.30242 12.7842 3.69138 13.8732C3.61186 14.0149 3.59032 14.1834 3.63151 14.3415C3.6727 14.4996 3.77323 14.6344 3.911 14.7162C4.04877 14.7981 4.21248 14.8202 4.36612 14.7778C4.51977 14.7355 4.65076 14.632 4.73027 14.4902C5.40555 13.286 5.88652 11.977 6.15445 10.6143C6.17021 10.5348 6.17058 10.4529 6.15556 10.3733C6.14054 10.2937 6.11041 10.2179 6.0669 10.1503C6.02339 10.0827 5.96735 10.0245 5.90199 9.9792C5.83662 9.93388 5.76322 9.90226 5.68597 9.88615ZM8.20451 2.46826C7.97899 2.46831 7.75369 2.48274 7.5299 2.51146C7.37506 2.53538 7.23544 2.62067 7.1409 2.74912C7.04637 2.87757 7.0044 3.03897 7.02398 3.19884C7.04356 3.3587 7.12313 3.50434 7.24568 3.60464C7.36823 3.70493 7.52404 3.75192 7.67982 3.73556C8.27056 3.65997 8.87018 3.71436 9.43896 3.89512C10.0077 4.07589 10.5327 4.37892 10.9792 4.78414C11.4256 5.18936 11.7833 5.68754 12.0286 6.2457C12.2739 6.80386 12.4012 7.40926 12.4021 8.02185C12.4019 8.82117 12.3538 9.61973 12.2582 10.413C12.2476 10.4936 12.2527 10.5757 12.2732 10.6543C12.2936 10.7329 12.3289 10.8066 12.3771 10.8712C12.4253 10.9357 12.4855 10.9898 12.5541 11.0303C12.6227 11.0708 12.6984 11.0969 12.7769 11.1072C12.8017 11.1102 12.8268 11.1118 12.8518 11.1118C12.9977 11.1115 13.1384 11.0565 13.2476 10.9571C13.3569 10.8577 13.4273 10.7208 13.4455 10.5719C13.5466 9.72741 13.5967 8.87731 13.5954 8.02647C13.595 6.55434 13.0272 5.14246 12.0166 4.10049C11.006 3.05852 9.63511 2.47153 8.20451 2.46826ZM12.5467 12.3606C12.4705 12.3403 12.391 12.3357 12.313 12.347C12.235 12.3583 12.1599 12.3853 12.092 12.4265C12.0241 12.4677 11.9648 12.5222 11.9174 12.587C11.8701 12.6518 11.8356 12.7256 11.8159 12.8041C11.7065 13.243 11.5798 13.6834 11.4411 14.1154C11.3904 14.2701 11.4014 14.4393 11.4716 14.5857C11.5419 14.7322 11.6657 14.844 11.8159 14.8967C11.8775 14.9183 11.942 14.9292 12.0071 14.9291C12.1327 14.929 12.2551 14.8883 12.3571 14.8127C12.459 14.7372 12.5353 14.6306 12.5752 14.508C12.7251 14.0513 12.8593 13.5824 12.9763 13.1157C12.9964 13.0372 13.0012 12.9554 12.9905 12.875C12.9798 12.7945 12.9538 12.7171 12.914 12.647C12.8742 12.5769 12.8213 12.5156 12.7584 12.4666C12.6955 12.4176 12.6238 12.3818 12.5475 12.3614L12.5467 12.3606Z" fill="black"/>
</svg>
