<svg width="25" height="25" viewBox="0 0 25 25" fill="none" xmlns="http://www.w3.org/2000/svg">
<path d="M14.8438 18.75H3.125L3.12266 6.95781L12.0555 13.1422C12.1861 13.2326 12.3412 13.281 12.5 13.281C12.6588 13.281 12.8139 13.2326 12.9445 13.1422L21.875 6.96094V14.0625H23.4375V6.25C23.4369 5.83579 23.2721 5.43872 22.9792 5.14583C22.6863 4.85294 22.2892 4.68812 21.875 4.6875H3.125C2.71073 4.68791 2.31354 4.85267 2.0206 5.1456C1.72767 5.43854 1.56291 5.83573 1.5625 6.25V18.75C1.56312 19.1642 1.72794 19.5613 2.02083 19.8542C2.31372 20.1471 2.71079 20.3119 3.125 20.3125H14.8438V18.75ZM20.1555 6.25L12.5 11.55L4.84453 6.25H20.1555Z" fill="white"/>
<path d="M20.3125 21.875C22.0384 21.875 23.4375 20.4759 23.4375 18.75C23.4375 17.0241 22.0384 15.625 20.3125 15.625C18.5866 15.625 17.1875 17.0241 17.1875 18.75C17.1875 20.4759 18.5866 21.875 20.3125 21.875Z" fill="white"/>
</svg>
