<svg width="18" height="22" viewBox="0 0 18 22" fill="none" xmlns="http://www.w3.org/2000/svg">
<path d="M16 15.6729V10.4729C15.5 10.5729 15 10.6729 14.5 10.6729H14V16.6729H4V9.67285C4 6.87285 6.2 4.67285 9 4.67285C9.1 3.37285 9.7 2.27285 10.5 1.37285C10.2 0.972852 9.6 0.672852 9 0.672852C7.9 0.672852 7 1.57285 7 2.67285V2.97285C4 3.87285 2 6.57285 2 9.67285V15.6729L0 17.6729V18.6729H18V17.6729L16 15.6729ZM7 19.6729C7 20.7729 7.9 21.6729 9 21.6729C10.1 21.6729 11 20.7729 11 19.6729H7ZM18 5.17285C18 7.07285 16.4 8.67285 14.5 8.67285C12.6 8.67285 11 7.07285 11 5.17285C11 3.27285 12.6 1.67285 14.5 1.67285C16.4 1.67285 18 3.27285 18 5.17285Z" fill="white"/>
</svg>
