<svg width="31" height="25" viewBox="0 0 31 25" fill="none" xmlns="http://www.w3.org/2000/svg">
<path d="M0.847961 20.4213C0.847961 21.4058 1.23904 22.3499 1.93518 23.0461C2.63131 23.7422 3.57547 24.1333 4.55995 24.1333H26.8319C27.8164 24.1333 28.7605 23.7422 29.4567 23.0461C30.1528 22.3499 30.5439 21.4058 30.5439 20.4213V10.2133H0.847961V20.4213ZM5.22281 15.3836C5.22281 14.8562 5.43232 14.3504 5.80524 13.9775C6.17817 13.6045 6.68397 13.395 7.21137 13.395H10.3931C10.9205 13.395 11.4263 13.6045 11.7992 13.9775C12.1721 14.3504 12.3816 14.8562 12.3816 15.3836V16.7093C12.3816 17.2367 12.1721 17.7425 11.7992 18.1154C11.4263 18.4884 10.9205 18.6979 10.3931 18.6979H7.21137C6.68397 18.6979 6.17817 18.4884 5.80524 18.1154C5.43232 17.7425 5.22281 17.2367 5.22281 16.7093V15.3836ZM26.8319 0.800781H4.55995C3.57547 0.800781 2.63131 1.19187 1.93518 1.888C1.23904 2.58413 0.847961 3.52829 0.847961 4.51277V6.2362H30.5439V4.51277C30.5439 3.52829 30.1528 2.58413 29.4567 1.888C28.7605 1.19187 27.8164 0.800781 26.8319 0.800781Z" fill="#015AB1"/>
</svg>
