<svg width="24" height="24" viewBox="0 0 24 24" fill="none" xmlns="http://www.w3.org/2000/svg">
<circle cx="11.5" cy="11.5" r="11.5" fill="#F6C23D"/>
<path fill-rule="evenodd" clip-rule="evenodd" d="M15.9537 10.3872H13.1247L14.8112 6.45268C14.8354 6.39622 14.8452 6.33465 14.8397 6.27347C14.8342 6.2123 14.8136 6.15344 14.7798 6.10218C14.746 6.05091 14.6999 6.00885 14.6458 5.97977C14.5918 5.95069 14.5313 5.93549 14.4699 5.93555H10.7602C10.6875 5.93548 10.6165 5.95675 10.5558 5.99672C10.4951 6.03668 10.4475 6.09358 10.4189 6.16035L8.19309 11.3539C8.16889 11.4104 8.15908 11.4719 8.16455 11.5331C8.17002 11.5943 8.1906 11.6531 8.22443 11.7044C8.25826 11.7557 8.30429 11.7977 8.35839 11.8268C8.41248 11.8559 8.47296 11.8711 8.53438 11.871H10.3699L8.19012 17.2975C8.04173 17.6663 8.4995 17.9786 8.78886 17.7056L12.5163 14.1866L16.1949 11.0401C16.2525 10.9908 16.2936 10.925 16.3128 10.8516C16.3319 10.7782 16.328 10.7007 16.3018 10.6296C16.2755 10.5585 16.228 10.4971 16.1658 10.4537C16.1036 10.4104 16.0296 10.3872 15.9537 10.3872ZM12.5623 11.1291H14.9492L12.02 13.6354L9.50854 16.0058L11.2632 11.6381C11.2858 11.5818 11.2942 11.5208 11.2877 11.4605C11.2813 11.4002 11.2601 11.3425 11.2261 11.2922C11.1922 11.242 11.1464 11.2009 11.0929 11.1724C11.0393 11.144 10.9796 11.1291 10.919 11.1291H9.09676L11.005 6.67748H13.9075L12.2211 10.612C12.1969 10.6684 12.187 10.73 12.1925 10.7912C12.198 10.8523 12.2186 10.9112 12.2524 10.9625C12.2862 11.0137 12.3323 11.0558 12.3864 11.0849C12.4405 11.114 12.5009 11.1291 12.5623 11.1291Z" fill="black"/>
</svg>
