<svg width="17" height="16" viewBox="0 0 17 16" fill="none" xmlns="http://www.w3.org/2000/svg">
<path d="M10.571 8C10.4844 8 10.391 7.98667 10.3044 7.96C10.1386 7.90401 9.99463 7.79724 9.89292 7.65485C9.79121 7.51245 9.7369 7.34165 9.7377 7.16667V5.99333C8.80437 5.90667 8.07104 5.12 8.07104 4.16667V1.83333C8.07104 0.82 8.89104 0 9.90437 0H14.2377C15.251 0 16.071 0.82 16.071 1.83333V4.16667C16.071 5.18 15.251 6 14.2377 6H12.491L11.2377 7.66667C11.0777 7.88 10.831 8 10.571 8ZM9.90437 1C9.44437 1 9.07104 1.37333 9.07104 1.83333V4.16667C9.07104 4.62667 9.44437 5 9.90437 5H10.7377V6.66667L11.991 5H14.2444C14.7044 5 15.0777 4.62667 15.0777 4.16667V1.83333C15.0777 1.37333 14.7044 1 14.2444 1H9.90437ZM5.07104 9.66667C4.32013 9.66491 3.60049 9.36583 3.06951 8.83486C2.53854 8.30389 2.23946 7.58424 2.2377 6.83333C2.23946 6.08243 2.53854 5.36278 3.06951 4.83181C3.60049 4.30084 4.32013 4.00176 5.07104 4C5.82194 4.00176 6.54159 4.30084 7.07256 4.83181C7.60353 5.36278 7.90261 6.08243 7.90437 6.83333C7.90261 7.58424 7.60353 8.30389 7.07256 8.83486C6.54159 9.36583 5.82194 9.66491 5.07104 9.66667ZM5.07104 5C4.0577 5 3.2377 5.82 3.2377 6.83333C3.2377 7.84667 4.0577 8.66667 5.07104 8.66667C6.08437 8.66667 6.90437 7.84667 6.90437 6.83333C6.90437 5.82 6.08437 5 5.07104 5ZM1.0517 14.6133C1.92504 15.5333 3.27837 16 5.0717 16C6.86504 16 8.21837 15.5333 9.0917 14.6133C10.1064 13.54 10.0737 12.2447 10.0717 12.1573V12.1533C10.0717 11.3333 9.40504 10.6667 8.58504 10.6667H1.55837C0.738371 10.6667 0.0717042 11.3333 0.0717042 12.1267V12.1353C0.0690375 12.262 0.0437043 13.5467 1.0517 14.6133ZM1.0717 12.1533C1.0717 11.8867 1.2917 11.6667 1.55837 11.6667H8.58504C8.8517 11.6667 9.0717 11.8867 9.0717 12.18V12.1813C9.05744 12.8299 8.80605 13.4508 8.36504 13.9267C7.6917 14.64 6.5717 15 5.0717 15C3.5717 15 2.4717 14.6467 1.7917 13.94C1.33284 13.4609 1.07516 12.8241 1.0717 12.1607V12.1533Z" fill="#06396A"/>
</svg>
