<svg width="44" height="44" viewBox="0 0 44 44" fill="none" xmlns="http://www.w3.org/2000/svg">
<g clip-path="url(#clip0_1350_1168)">
<path d="M24.4444 2.44444H23.2222V1.22222C23.2222 0.898069 23.0934 0.587192 22.8642 0.357981C22.635 0.128769 22.3241 0 22 0C21.6758 0 21.365 0.128769 21.1358 0.357981C20.9065 0.587192 20.7778 0.898069 20.7778 1.22222V2.44444H19.5556C19.2314 2.44444 18.9205 2.57321 18.6913 2.80242C18.4621 3.03164 18.3333 3.34251 18.3333 3.66667C18.3333 3.99082 18.4621 4.3017 18.6913 4.53091C18.9205 4.76012 19.2314 4.88889 19.5556 4.88889H20.7778V12.2222C20.7778 12.5464 20.9065 12.8573 21.1358 13.0865C21.365 13.3157 21.6758 13.4444 22 13.4444C22.3241 13.4444 22.635 13.3157 22.8642 13.0865C23.0934 12.8573 23.2222 12.5464 23.2222 12.2222V4.88889H24.4444C24.7686 4.88889 25.0795 4.76012 25.3087 4.53091C25.5379 4.3017 25.6667 3.99082 25.6667 3.66667C25.6667 3.34251 25.5379 3.03164 25.3087 2.80242C25.0795 2.57321 24.7686 2.44444 24.4444 2.44444Z" fill="white"/>
<path d="M22 11L15.7141 15.8889H15.8889V26.8889H28.1111V15.8889H28.2859L22 11Z" fill="white"/>
<path d="M24.4432 18.3331C24.4289 17.6945 24.1652 17.0868 23.7084 16.6401C23.2517 16.1935 22.6382 15.9434 21.9994 15.9434C21.3605 15.9434 20.7471 16.1935 20.2903 16.6401C19.8336 17.0868 19.5698 17.6945 19.5556 18.3331V26.8887H24.4444L24.4432 18.3331Z" fill="white"/>
<path d="M21.9988 22L4.88889 31.7778V42.7778C4.88889 43.1019 5.01766 43.4128 5.24687 43.642C5.47608 43.8712 5.78695 44 6.11111 44H37.8889C38.213 44 38.5239 43.8712 38.7531 43.642C38.9823 43.4128 39.1111 43.1019 39.1111 42.7778V31.7778L21.9988 22Z" fill="white"/>
<path d="M39.1087 32.9997C38.8963 33 38.6876 32.9444 38.5037 32.8383L21.9988 23.4065L5.49389 32.8383C5.21253 32.9991 4.87882 33.0416 4.56617 32.9563C4.25353 32.871 3.98756 32.665 3.82678 32.3837C3.666 32.1023 3.62358 31.7686 3.70884 31.456C3.79411 31.1433 4.00008 30.8774 4.28145 30.7166L21.3926 20.9388C21.5771 20.8331 21.7861 20.7775 21.9988 20.7775C22.2115 20.7775 22.4205 20.8331 22.605 20.9388L39.7161 30.7166C39.952 30.8491 40.1371 31.0563 40.2423 31.3056C40.3475 31.5549 40.3669 31.8321 40.2973 32.0936C40.2277 32.355 40.0732 32.586 39.858 32.75C39.6428 32.914 39.3792 33.0019 39.1087 32.9997ZM28.1099 17.1108C27.8327 17.1106 27.5637 17.0163 27.3472 16.8431L21.9988 12.5653L16.6528 16.8431C16.3996 17.0457 16.0763 17.1395 15.7541 17.1037C15.4318 17.0679 15.1369 16.9056 14.9343 16.6525C14.7317 16.3993 14.638 16.076 14.6738 15.7537C14.7095 15.4315 14.8718 15.1366 15.125 14.934L21.2349 10.0451C21.4518 9.87178 21.7211 9.77734 21.9988 9.77734C22.2764 9.77734 22.5458 9.87178 22.7627 10.0451L28.875 14.934C29.0729 15.0923 29.2168 15.3082 29.2866 15.5518C29.3564 15.7955 29.3488 16.0548 29.2648 16.2939C29.1807 16.533 29.0244 16.74 28.8175 16.8864C28.6106 17.0327 28.3633 17.1112 28.1099 17.1108Z" fill="white"/>
<path d="M15.8877 37.8889C15.8949 37.5634 15.8371 37.2397 15.7176 36.9368C15.598 36.634 15.4192 36.358 15.1915 36.1252C14.9639 35.8924 14.692 35.7074 14.3919 35.5812C14.0918 35.4549 13.7694 35.3898 13.4438 35.3898C13.1182 35.3898 12.7959 35.4549 12.4958 35.5812C12.1957 35.7074 11.9238 35.8924 11.6961 36.1252C11.4685 36.358 11.2896 36.634 11.1701 36.9368C11.0505 37.2397 10.9927 37.5634 11 37.8889V44H15.8889V37.8889H15.8877ZM24.4432 35.4445C24.4289 34.8058 24.1652 34.1981 23.7084 33.7514C23.2517 33.3048 22.6382 33.0547 21.9994 33.0547C21.3605 33.0547 20.7471 33.3048 20.2903 33.7514C19.8336 34.1981 19.5698 34.8058 19.5556 35.4445V44H24.4444L24.4432 35.4445ZM32.9988 37.8889C32.9845 37.2502 32.7207 36.6425 32.264 36.1959C31.8072 35.7492 31.1938 35.4991 30.5549 35.4991C29.9161 35.4991 29.3026 35.7492 28.8459 36.1959C28.3891 36.6425 28.1254 37.2502 28.1111 37.8889V44H33L32.9988 37.8889Z" fill="white"/>
<path d="M1.22223 7.33337C1.22223 3.95882 6.0659 2.44448 7.33334 7.33337C8.70345 2.44448 13.4445 3.95882 13.4445 7.33337C13.4445 11 7.33334 14.6667 7.33334 14.6667C7.33334 14.6667 1.22223 11 1.22223 7.33337ZM30.5556 7.33337C30.5556 3.95882 35.3992 2.44448 36.6667 7.33337C38.0368 2.44448 42.7778 3.95882 42.7778 7.33337C42.7778 11 36.6667 14.6667 36.6667 14.6667C36.6667 14.6667 30.5556 11 30.5556 7.33337Z" fill="white"/>
</g>
<defs>
<clipPath id="clip0_1350_1168">
<rect width="44" height="44" fill="white"/>
</clipPath>
</defs>
</svg>
