<svg width="44" height="44" viewBox="0 0 44 44" fill="none" xmlns="http://www.w3.org/2000/svg">
<path d="M26.1429 21.1505C26.604 21.1027 27.0636 21.0419 27.5213 20.9683V17.7363C26.8173 18.0725 26.0831 18.2801 25.3529 18.441C23.5015 18.8281 21.6184 18.8735 19.7526 18.6782C18.8121 18.5593 17.9066 18.4039 16.9689 18.0705C16.7832 18.0003 16.599 17.922 16.4154 17.834V20.7393C19.6343 21.2666 22.9075 21.4901 26.1429 21.1505Z" fill="white"/>
<path d="M38.7056 28.8661V17.0782C38.7056 15.7114 37.7664 14.4389 36.1598 13.3609V8.19844C36.1598 7.69313 35.7589 7.27513 35.2371 7.19606C35.6201 7.03381 35.8909 6.699 35.8909 6.29612C35.8909 5.73719 34.7552 3.93319 34.7552 3.93319C34.7552 3.93319 33.6181 5.7365 33.6181 6.29612C33.6181 6.6935 33.8828 7.02556 34.2581 7.19056C33.7067 7.24556 33.2743 7.67388 33.2743 8.19844V11.9006C32.2676 11.5166 31.2363 11.2003 30.1874 10.9539C30.2416 10.824 30.2703 10.6849 30.272 10.5442C30.272 9.86837 28.897 7.68831 28.897 7.68831C28.897 7.68831 27.6389 9.68481 27.533 10.4479C26.1862 10.2492 24.7528 10.1337 23.2739 10.087V5.13356C23.2739 4.67913 22.9219 4.29962 22.4572 4.21644C22.7741 4.06862 22.9955 3.78262 22.9955 3.44231C22.9948 2.95281 22 1.375 22 1.375C22 1.375 21.0052 2.95281 21.0052 3.44231C21.0052 3.7785 21.2211 4.06175 21.5318 4.21094C21.0416 4.27419 20.6614 4.66125 20.6614 5.13356V10.0877C19.2156 10.1358 17.8138 10.2499 16.4952 10.4438C16.3659 9.6635 15.1332 7.70825 15.1332 7.70825C15.1332 7.70825 13.7582 9.88762 13.7582 10.5641C13.7582 10.6996 13.7892 10.8274 13.8346 10.9491C12.7512 11.2018 11.6869 11.5301 10.6494 11.9316V8.20875C10.6494 7.70412 10.2479 7.28612 9.72538 7.20706C10.1083 7.04481 10.3806 6.70931 10.3806 6.30644C10.3806 5.7475 9.24344 3.9435 9.24344 3.9435C9.24344 3.9435 8.10631 5.74681 8.10631 6.30644C8.10631 6.70381 8.37169 7.03587 8.74706 7.20087C8.195 7.25656 7.76256 7.68487 7.76256 8.20875V13.4159C6.204 14.4829 5.29306 15.7355 5.29306 17.0789V28.8681C2.83044 30.2954 1.375 32.0513 1.375 33.9508C1.375 38.742 10.6095 42.625 22 42.625C33.3905 42.625 42.625 38.742 42.625 33.9508C42.625 32.0506 41.1689 30.2947 38.7056 28.8661ZM34.1859 6.83581C34.1859 6.556 34.7552 5.654 34.7552 5.654C34.7552 5.654 35.3244 6.556 35.3244 6.83581C35.3232 6.9034 35.3072 6.96989 35.2776 7.03068C35.2481 7.09147 35.2056 7.14509 35.1533 7.18781C35.1216 7.18506 35.0907 7.17888 35.0584 7.17888H34.3764C34.3674 7.17888 34.3599 7.18094 34.3509 7.18094C34.3003 7.13859 34.2594 7.08586 34.2309 7.02631C34.2024 6.96677 34.1871 6.9018 34.1859 6.83581ZM33.9611 8.19844C33.9611 8.01831 34.1509 7.86706 34.3764 7.86706H35.0584C35.2825 7.86706 35.4723 8.019 35.4723 8.19844V15.6214C35.4711 15.6942 35.4426 15.7639 35.3925 15.8166L35.1395 15.9459C35.1129 15.9506 35.086 15.9532 35.0591 15.9534H34.3771C34.1522 15.9534 33.9618 15.8008 33.9618 15.6214L33.9611 8.19844ZM28.8963 9.76869C28.8963 9.76869 29.5852 10.8584 29.5852 11.1966C29.5852 11.5342 29.2765 11.8085 28.8963 11.8085C28.5161 11.8085 28.2088 11.5349 28.2088 11.1966C28.2088 10.8584 28.8963 9.76869 28.8963 9.76869ZM21.5029 3.91394C21.5029 3.66987 22 2.88131 22 2.88131C22 2.88131 22.4984 3.66919 22.4984 3.91394C22.4972 3.96954 22.4845 4.02429 22.4612 4.0748C22.4379 4.1253 22.4045 4.17047 22.363 4.2075C22.33 4.20406 22.2984 4.19788 22.2647 4.19788H21.6686C21.6562 4.19788 21.6453 4.20062 21.6329 4.20131C21.5929 4.16469 21.5608 4.12034 21.5385 4.07094C21.5161 4.02155 21.504 3.96814 21.5029 3.91394ZM21.3489 5.13356C21.3489 4.9995 21.4954 4.88606 21.6686 4.88606H22.2647C22.4386 4.88606 22.5858 4.9995 22.5858 5.13356V11.6291C22.585 11.6788 22.5659 11.7266 22.5321 11.7631L22.3224 11.8711C22.3033 11.8738 22.284 11.8752 22.2647 11.8752H21.6686C21.4954 11.8752 21.3489 11.7624 21.3489 11.6291V5.13356ZM15.1332 9.78725C15.1332 9.78725 15.8207 10.8776 15.8207 11.2159C15.8207 11.5527 15.5134 11.8278 15.1332 11.8278C14.7531 11.8278 14.4457 11.5534 14.4457 11.2159C14.4457 10.8776 15.1332 9.78725 15.1332 9.78725ZM8.67556 6.84475C8.67556 6.56631 9.24344 5.66431 9.24344 5.66431C9.24344 5.66431 9.81269 6.56631 9.81269 6.84475C9.81154 6.91262 9.79556 6.97942 9.76587 7.04047C9.73618 7.10151 9.6935 7.15532 9.64081 7.19813C9.60919 7.19538 9.57894 7.18919 9.54663 7.18919H8.86462C8.85637 7.18919 8.84881 7.19125 8.84056 7.19125C8.79001 7.14854 8.74914 7.09555 8.72069 7.0358C8.69223 6.97605 8.67685 6.91092 8.67556 6.84475ZM8.45006 8.20737C8.45006 8.02794 8.63981 7.87669 8.86531 7.87669H9.54731C9.77213 7.87669 9.96256 8.02862 9.96256 8.20737V15.631C9.96122 15.7035 9.93248 15.7727 9.88212 15.8249L9.62912 15.9548C9.60234 15.9596 9.5752 15.9621 9.548 15.9624H8.866C8.64119 15.9624 8.45075 15.8104 8.45075 15.631L8.45006 8.20737ZM7.69106 16.2119C7.71375 16.0951 7.75913 15.9885 7.79969 15.8799C7.84506 16.0463 7.93444 16.1954 8.05613 16.3185C8.0025 16.7111 8.09875 17.1091 8.30844 17.4536C8.75462 18.1706 9.51844 18.6725 10.2967 19.0712C11.3864 19.6137 12.5592 19.9595 13.7582 20.2318V13.2337C13.7582 13.0515 13.8456 12.892 13.9734 12.7607C13.7754 12.7992 13.5761 12.8281 13.3794 12.8721C12.4548 13.0824 11.5142 13.3609 10.6494 13.7631V13.3994C10.6597 13.3946 10.6693 13.3891 10.6796 13.3849C11.5239 13.0075 12.4046 12.7304 13.2976 12.5187C15.0872 12.1045 16.9124 11.8637 18.7481 11.7996C19.3909 11.7755 20.0351 11.7789 20.68 11.7948C20.7467 12.133 21.0093 12.4039 21.3538 12.5104C20.4907 12.4214 19.624 12.3725 18.7564 12.364C17.7373 12.3591 16.7187 12.4068 15.7046 12.507C16.1095 12.5854 16.4161 12.8728 16.4161 13.2337V14.4932L16.4526 14.4753C16.9242 14.2704 17.391 14.1522 17.8626 14.0628C18.8038 13.8896 19.7464 13.8517 20.6848 13.9054C21.6281 13.9707 22.5493 14.1013 23.4706 14.4939C23.6974 14.597 23.9236 14.7228 24.1333 14.9126C24.332 15.0865 24.5651 15.4241 24.4716 15.8104C24.3719 16.1707 24.1237 16.3536 23.9119 16.4938C23.6971 16.6255 23.4654 16.7273 23.2231 16.7963C22.2901 17.0665 21.3462 17.0638 20.4229 16.9462C19.9602 16.8726 19.5092 16.7874 19.0692 16.5749C18.865 16.4636 18.623 16.3281 18.5515 16.0408C18.5123 15.7238 18.7852 15.5588 18.975 15.4584L19.0245 15.5485C18.843 15.6585 18.6629 15.8386 18.7151 16.005C18.7674 16.1714 18.9729 16.2869 19.1641 16.3673C19.558 16.5247 20.02 16.5818 20.4566 16.6148C21.34 16.6623 22.2523 16.5784 23.0581 16.3013C23.4197 16.1851 23.8693 15.8881 23.8872 15.6826C23.9436 15.5354 23.5861 15.2426 23.2066 15.114C22.4331 14.8294 21.5167 14.7427 20.6497 14.7104C19.7725 14.6905 18.8856 14.7579 18.0414 14.9442C17.6227 15.0377 17.2074 15.1628 16.8492 15.334C16.6975 15.4069 16.5526 15.4932 16.4161 15.5918V16.6347C16.6719 16.8121 16.9929 16.9592 17.3257 17.0761C18.1074 17.3436 19.0094 17.4934 19.8729 17.5856C21.6226 17.7705 23.4197 17.7114 25.1384 17.3889C25.9834 17.2226 26.8201 16.9854 27.522 16.5839V14.1075C27.2456 13.9425 26.9534 13.7912 26.6448 13.662C25.8493 13.3286 24.9865 13.1079 24.1086 12.9229C23.3436 12.7727 22.573 12.653 21.7986 12.5641H22.2661C22.352 12.5641 22.4373 12.5538 22.5204 12.5331L22.8944 12.3516L22.9659 12.3028C23.0711 12.2079 23.1502 12.0959 23.2024 11.9735C23.5558 12.0168 23.9085 12.0594 24.2605 12.1199C25.1673 12.2787 26.0837 12.4781 26.9816 12.8177C27.1762 12.8906 27.3687 12.9752 27.5598 13.0659C27.6464 12.7215 27.9984 12.4561 28.4398 12.4561H29.2641C29.7701 12.4561 30.1813 12.7971 30.1813 13.2165V20.3706C32.3029 19.7429 34.3117 18.7522 36.003 17.2624L36.0745 17.336C34.8384 18.6869 33.2668 19.7381 31.5755 20.4765C31.1183 20.6738 30.6529 20.8505 30.1819 21.0121V21.5875C30.1819 21.7965 30.0802 21.9869 29.9145 22.1238L29.502 22.3217C29.4238 22.3389 29.3441 22.3478 29.2641 22.3486H28.4398C27.9909 22.3486 27.6341 22.0756 27.555 21.7209C27.1198 21.8082 26.6819 21.8831 26.2432 21.9436C22.9687 22.3926 19.6398 22.2358 16.4079 21.6411C16.4016 21.7378 16.3755 21.8322 16.3313 21.9184C16.2871 22.0046 16.2256 22.0808 16.1508 22.1423L15.7382 22.3396C15.6633 22.3561 15.5822 22.3671 15.5004 22.3671H14.6761C14.1687 22.3671 13.7589 22.0261 13.7589 21.6061V21.0416C12.4733 20.6903 11.2021 20.2441 10.0244 19.5766C9.2235 19.1056 8.42188 18.5323 7.93994 17.6626C7.70481 17.2308 7.58863 16.7069 7.69106 16.2119ZM37.3306 32.5442C37.3306 35.2124 30.7746 38.1961 22 38.1961C13.2248 38.1961 6.66806 35.2124 6.66806 32.5442V29.8121C7.34456 29.7756 7.88494 29.2854 7.88494 28.6811V26.0308C7.88494 25.1962 8.65425 24.5197 9.60369 24.5197C10.5531 24.5197 11.3238 25.1962 11.3238 26.0308V29.3006C11.3238 30.2713 12.2196 31.0592 13.3231 31.0592C14.4279 31.0592 15.3237 30.2713 15.3237 29.3006V25.96C15.3237 25.0862 16.1294 24.3787 17.1229 24.3787C18.1177 24.3787 18.9234 25.0862 18.9234 25.96V28.0899C18.9234 28.5759 19.3703 28.9692 19.9237 28.9692C20.4758 28.9692 20.9227 28.5759 20.9227 28.0899V26.4C20.9227 25.7689 21.5057 25.2574 22.2241 25.2574C22.9412 25.2574 23.5228 25.7689 23.5228 26.4V29.3012C23.5228 30.272 24.42 31.0599 25.5234 31.0599C26.6283 31.0599 27.5241 30.272 27.5241 29.3012V26.0494C27.5241 25.2244 28.2851 24.5548 29.2242 24.5548C30.1634 24.5548 30.9244 25.2244 30.9244 26.0494V28.4226C30.9244 28.908 31.3713 29.3012 31.9248 29.3012C32.4768 29.3012 32.9251 28.908 32.9251 28.4226V26.7609C32.9251 26.3285 33.3224 25.9779 33.814 25.9779C34.3069 25.9779 34.7057 26.3285 34.7057 26.7609V29.3012C34.7057 30.272 35.6001 31.0599 36.7049 31.0599C36.9249 31.0599 37.1326 31.0207 37.3306 30.9629V32.5442Z" fill="white"/>
</svg>
