<svg width="16" height="16" viewBox="0 0 16 16" fill="none" xmlns="http://www.w3.org/2000/svg">
<path d="M14.3468 6.35865C14.3468 6.19543 14.2821 6.0389 14.1669 5.92349C14.0517 5.80808 13.8955 5.74324 13.7326 5.74324C13.5697 5.74324 13.4135 5.80808 13.2983 5.92349C13.1831 6.0389 13.1184 6.19543 13.1184 6.35865H14.3468ZM2.88162 6.35865C2.88162 6.19543 2.81691 6.0389 2.70172 5.92349C2.58653 5.80808 2.43031 5.74324 2.26741 5.74324C2.10451 5.74324 1.94829 5.80808 1.8331 5.92349C1.71791 6.0389 1.6532 6.19543 1.6532 6.35865H2.88162ZM14.9364 8.43462C14.9927 8.49508 15.0605 8.54358 15.1358 8.57721C15.2112 8.61085 15.2925 8.62893 15.375 8.63039C15.4574 8.63185 15.5393 8.61665 15.6158 8.5857C15.6923 8.55474 15.7618 8.50868 15.8201 8.45024C15.8784 8.3918 15.9244 8.32219 15.9553 8.24556C15.9862 8.16893 16.0014 8.08685 15.9999 8.00422C15.9984 7.92159 15.9804 7.8401 15.9468 7.76461C15.9133 7.68912 15.8649 7.62118 15.8045 7.56484L14.9364 8.43462ZM8 0.614864L8.43404 0.179977C8.31887 0.0647321 8.16276 0 8 0C7.83723 0 7.68113 0.0647321 7.56596 0.179977L8 0.614864ZM0.195488 7.56484C0.135143 7.62118 0.0867418 7.68912 0.0531718 7.76461C0.0196018 7.8401 0.00155067 7.92159 9.55878e-05 8.00422C-0.00135949 8.08685 0.0138111 8.16893 0.0447024 8.24556C0.0755937 8.32219 0.121573 8.3918 0.179897 8.45024C0.238221 8.50868 0.307695 8.55474 0.384174 8.5857C0.460654 8.61665 0.542572 8.63185 0.625041 8.63039C0.707511 8.62893 0.788843 8.61085 0.864185 8.57721C0.939527 8.54358 1.00734 8.49508 1.06357 8.43462L0.195488 7.56484ZM3.90529 16H12.0947V14.7692H3.90529V16ZM14.3468 13.7435V6.35865H13.1184V13.7435H14.3468ZM2.88162 13.7435V6.35865H1.6532V13.7435H2.88162ZM15.8045 7.56484L8.43404 0.179977L7.56596 1.04975L14.9364 8.43462L15.8045 7.56484ZM7.56596 0.179977L0.195488 7.56484L1.06357 8.43462L8.43404 1.04975L7.56596 0.179977ZM12.0947 16C12.692 16 13.2648 15.7623 13.6872 15.3391C14.1095 14.9159 14.3468 14.342 14.3468 13.7435H13.1184C13.1184 14.3097 12.6598 14.7692 12.0947 14.7692V16ZM3.90529 14.7692C3.34022 14.7692 2.88162 14.3097 2.88162 13.7435H1.6532C1.6532 14.342 1.89048 14.9159 2.31283 15.3391C2.73517 15.7623 3.308 16 3.90529 16V14.7692Z" fill="#015AB1"/>
</svg>
