<svg width="244" height="243" viewBox="0 0 244 243" fill="none" xmlns="http://www.w3.org/2000/svg">
<path d="M56.39 103.076C56.39 103.076 43.3093 64.3705 88.935 69.0944C134.561 73.8183 112.761 56.6868 130.002 46.0556C147.243 35.4243 198.042 68.4991 176.789 100.4C155.536 132.301 210.753 103.119 222.272 151.092C229.379 180.697 211.745 202.487 197.196 214.839" stroke="#CCDDE2" stroke-width="1.32921" stroke-miterlimit="10"/>
<path d="M201.646 177.852C198.217 157.997 186.077 140.228 166.352 133.869C161.307 132.252 156.147 131.013 150.917 130.163V130.19C150.644 131.838 149.998 133.403 149.029 134.763C146.973 137.58 144.14 139.893 140.859 141.098C137.511 142.338 133.363 142.498 130.255 140.549C128.384 139.378 126.568 137.315 126.24 135.089C125.866 132.581 127.144 130.207 128.943 128.55C113.702 128.674 99.3646 131.182 87.8755 134.037C88.2738 135.704 88.8252 137.331 89.5231 138.897C90.4997 141.08 91.8797 143.058 93.5909 144.729C95.7252 142.615 97.5938 140.248 99.1556 137.682C100.65 138.171 101.967 139.088 102.944 140.32C103.921 141.552 104.514 143.043 104.65 144.61V144.69C105.252 150.379 99.7752 154.653 95.1728 157.282C89.856 160.339 83.9292 162.628 78.1069 164.531C75.7061 165.318 72.586 165.989 70.0515 165.168C69.7786 165.081 69.5123 164.974 69.2544 164.849C66.7272 163.61 65.036 161.012 63.7165 158.638C59.9573 151.895 57.5127 144.544 55.8554 136.999C44.3542 138.469 43.0372 130.681 42.3543 128.771L32.5153 156.276C31.9991 158.253 31.9435 160.322 32.352 162.324C32.7607 164.327 33.6231 166.208 34.8729 167.825C36.1224 169.442 37.7262 170.75 39.5606 171.65C41.3952 172.55 43.4116 173.018 45.455 173.016H86.1867L104.689 220.474L109.933 233.944H139.885C137.455 233.944 136.126 233.351 135.161 232.384C134.165 231.387 133.604 230.036 133.601 228.627C133.601 225.711 135.994 223.32 139.885 223.32H140.159C139.865 223.32 139.583 223.293 139.289 223.266C139.472 223.247 139.653 223.217 139.831 223.177C139.639 223.172 139.446 223.157 139.255 223.133C141.01 222.926 142.636 222.108 143.849 220.824C145.062 219.539 145.785 217.869 145.892 216.105C145.897 216.014 145.897 215.922 145.892 215.831V215.69C145.85 213.882 145.159 212.149 143.945 210.808C142.731 209.467 141.075 208.608 139.28 208.388C139.484 208.371 139.678 208.354 139.875 208.354C139.698 208.31 139.501 208.283 139.316 208.256C139.608 208.23 139.902 208.21 140.184 208.21L162.097 208.327L166.129 208.344H170.913C171.135 208.344 171.358 208.344 171.57 208.371L178.677 208.407L183.426 208.434C185.41 208.45 187.307 209.252 188.702 210.664C190.097 212.076 190.876 213.982 190.869 215.967C190.866 217.089 190.606 218.195 190.108 219.201C192.145 218.94 194.034 217.998 195.469 216.528C198.888 213.036 200.36 207.809 201.378 203.163C203.179 194.886 203.072 186.165 201.646 177.852ZM146.281 178.411C142.152 184.766 135.122 184.194 135.122 184.194C135.122 184.194 134.539 184.763 133.178 182.343C131.817 179.923 127.941 178.268 127.941 178.268C127.633 180.698 126.994 184.391 120.651 179.604C114.309 174.817 116.221 167.838 116.763 164.152C117.305 160.466 119.466 159.243 119.466 159.243L122.017 157.897C122.017 157.897 114.637 155.999 114.282 155.929C113.928 155.858 107.354 150.354 114.025 148.901C120.695 147.448 131.093 153.227 133.103 154.369C135.112 155.511 146.856 165.445 146.856 165.445C146.856 165.445 150.431 172.066 146.281 178.411Z" fill="#353642"/>
<path d="M55.8457 137.003C55.8457 137.003 61.408 136.328 63.4905 132.357L61.6753 142.541C61.6753 142.541 83.8029 135.008 87.861 134.036C87.861 134.036 89.1683 142.466 94.3734 144.728L99.7437 137.9C99.7437 137.9 106.477 139.601 104.635 148.777C102.793 157.952 77.3172 165.622 72.9966 165.444C68.6761 165.267 64.0251 162.608 59.2623 148.322L55.8457 137.003Z" fill="#353642"/>
<path d="M64.9071 114.317C66.3165 116.611 67.7332 118.9 69.1961 121.16C70.0976 122.552 71.7403 124.538 69.9931 125.993C69.4245 126.429 68.7378 126.683 68.0224 126.722C66.8997 126.822 65.7212 126.552 65.0384 125.587L61.6364 119.95C60.9584 118.826 59.8817 117.998 58.621 117.631C57.3601 117.265 56.0075 117.386 54.8324 117.972" stroke="black" stroke-width="1.32921" stroke-miterlimit="10"/>
<path d="M77.774 121.743C78.6634 123.857 78.0607 125.22 77.0207 125.905C75.3197 127.02 73.0428 126.486 71.8375 124.858L64.9193 114.329" stroke="black" stroke-width="1.32921" stroke-miterlimit="10"/>
<path d="M70.7635 111.255C73.2809 114.317 76.457 120.003 78.2139 122.377C79.9707 124.752 82.6875 123.32 82.6875 123.32C84.8939 122.132 84.5197 120.161 83.555 117.768C81.1785 111.892 77.7862 107.985 74.0027 105.423C62.2779 97.4919 50.2494 103.343 46.67 117.034L32.5153 156.276C31.9991 158.253 31.9435 160.322 32.352 162.325C32.7607 164.327 33.6231 166.208 34.8729 167.825C36.1224 169.442 37.7262 170.75 39.5606 171.65C41.3952 172.55 43.4116 173.017 45.455 173.016H86.1867L109.94 233.946" stroke="black" stroke-width="1.32921" stroke-miterlimit="10"/>
<path d="M85.307 115.073C88.223 114.062 88.0894 109.411 83.9511 107.841C79.3803 106.106 71.2641 103.652 69.2253 103.039C69.2127 103.03 69.1973 103.024 69.1816 103.022C69.0382 102.979 68.9386 102.942 68.8608 102.925L68.7466 102.889" stroke="black" stroke-width="1.32921" stroke-miterlimit="10"/>
<path d="M128.391 161.575C125.839 158.509 118.856 156.771 114.297 155.93C113.531 155.787 112.832 155.397 112.306 154.822C111.78 154.247 111.456 153.516 111.381 152.74C111.328 152.216 111.388 151.688 111.558 151.189C111.83 150.425 112.351 149.773 113.037 149.34C113.723 148.906 114.535 148.716 115.342 148.798C123.118 149.586 131.137 152.033 137.068 157.303C137.068 157.303 165.823 179.246 169.256 181.382C170.673 182.242 171.995 181.227 171.035 179.876L170.734 179.36C169.044 176.46 167.043 173.752 164.768 171.283" stroke="black" stroke-width="1.32921" stroke-miterlimit="10"/>
<path d="M128.923 128.547C92.7598 128.848 61.6753 142.539 61.6753 142.539L64.7784 125.145" stroke="black" stroke-width="1.32921" stroke-miterlimit="10"/>
<path d="M185.09 223.212C185.09 223.212 181.151 222.321 180.104 225.475C179.056 228.629 177.963 233.647 185.493 233.943C193.024 234.24 188.601 232.76 188.166 230.322C187.732 227.885 185.09 223.212 185.09 223.212Z" fill="#353642"/>
<path d="M124.916 165.578C124.916 165.578 120.666 162.356 116.839 165.622C116.678 165.764 116.537 165.927 116.421 166.108" stroke="black" stroke-width="1.32921" stroke-miterlimit="10"/>
<g opacity="0.77">
<path opacity="0.77" d="M71.8229 124.846C73.0379 126.477 75.3124 127.009 77.0061 125.891C78.034 125.211 78.6367 123.855 77.7691 121.76C77.9271 121.991 78.0705 122.195 78.2114 122.382C79.9659 124.766 82.685 123.33 82.685 123.33C84.8915 122.142 84.5197 120.171 83.555 117.775C82.6109 115.402 81.3723 113.157 79.8687 111.093C80.8528 110.172 82.0216 109.241 83.2536 109.649C84.5829 110.091 84.9547 111.758 85.1053 113.148C85.1758 113.795 85.2463 114.434 85.3167 115.08L86.3811 124.596C86.7358 127.755 87.0906 130.96 87.8609 134.044C88.2592 135.711 88.8106 137.338 89.5085 138.904C90.4851 141.087 91.8651 143.066 93.5763 144.736C95.7106 142.622 97.5792 140.255 99.141 137.689C100.635 138.178 101.952 139.095 102.929 140.327C103.906 141.559 104.499 143.05 104.635 144.617V144.697C105.238 150.386 99.7606 154.66 95.1582 157.289C89.8414 160.346 83.9146 162.635 78.0923 164.538C75.6915 165.325 72.5714 165.996 70.0369 165.175C69.764 165.088 69.4977 164.981 69.2398 164.856C66.7126 163.617 65.0214 161.019 63.7019 158.645C57.3839 147.285 54.7595 134.241 53.3768 121.323C56.1421 120.941 58.8978 120.516 61.6194 119.93C61.6194 119.93 61.6194 119.95 61.6364 119.957L64.7735 125.16L65.0311 125.592C65.7115 126.564 66.89 126.824 68.0151 126.727C68.7305 126.692 69.4177 126.437 69.9834 125.998C71.7282 124.54 70.0903 122.562 69.1864 121.17" fill="white"/>
<path opacity="0.77" d="M71.8229 124.846C73.0379 126.477 75.3124 127.009 77.0061 125.891C78.034 125.211 78.6367 123.855 77.7691 121.76C77.9271 121.991 78.0705 122.195 78.2114 122.382C79.9659 124.766 82.685 123.33 82.685 123.33C84.8915 122.142 84.5197 120.171 83.555 117.775C82.6109 115.402 81.3723 113.157 79.8687 111.093C80.8528 110.172 82.0216 109.241 83.2536 109.649C84.5829 110.091 84.9547 111.758 85.1053 113.148C85.1758 113.795 85.2463 114.434 85.3167 115.08L86.3811 124.596C86.7358 127.755 87.0906 130.96 87.8609 134.044C88.2592 135.711 88.8106 137.338 89.5085 138.904C90.4851 141.087 91.8651 143.066 93.5763 144.736C95.7106 142.622 97.5792 140.255 99.141 137.689C100.635 138.178 101.952 139.095 102.929 140.327C103.906 141.559 104.499 143.05 104.635 144.617V144.697C105.238 150.386 99.7606 154.66 95.1582 157.289C89.8414 160.346 83.9146 162.635 78.0923 164.538C75.6915 165.325 72.5714 165.996 70.0369 165.175C69.764 165.088 69.4977 164.981 69.2398 164.856C66.7126 163.617 65.0214 161.019 63.7019 158.645C57.3839 147.285 54.7595 134.241 53.3768 121.323C56.1421 120.941 58.8978 120.516 61.6194 119.93C61.6194 119.93 61.6194 119.95 61.6364 119.957L64.7735 125.16L65.0311 125.592C65.7115 126.564 66.89 126.824 68.0151 126.727C68.7305 126.692 69.4177 126.437 69.9834 125.998C71.7282 124.54 70.0903 122.562 69.1864 121.17" fill="#015AB1"/>
<path opacity="0.77" d="M72.569 125.617C73.6455 127.075 75.485 126.89 77.0061 125.891C77.9247 125.284 78.678 125.461 77.9028 123.588C78.0462 123.792 78.0656 123.102 78.192 123.255C79.7593 125.383 78.2114 122.375 78.2114 122.375C80.3984 125.138 85.1588 122.535 84.2864 120.399C83.363 118.098 82.391 114.696 81.159 112.995C82.131 112.077 81.9439 112.213 83.1808 112.944C83.513 113.158 83.7912 113.446 83.9931 113.785C84.1953 114.124 84.3156 114.506 84.3448 114.9C84.4444 115.826 84.544 116.713 84.6436 117.617L85.5913 126.122C85.9097 128.948 86.2256 131.803 86.9133 134.554C87.2688 136.042 87.7618 137.493 88.3858 138.889C89.2558 140.811 92.0503 144.012 93.5763 145.477C95.4741 143.594 97.7486 140.131 99.141 137.83C101.814 138.651 101.697 141.208 101.887 144V144.073C102.426 149.149 97.5372 152.961 93.4402 155.311C88.692 158.04 83.4019 160.081 78.2041 161.782C76.0609 162.487 73.2761 163.095 71.0138 162.351C70.7698 162.274 70.5317 162.179 70.3018 162.067C68.0467 160.959 66.5353 158.643 65.3567 156.521C60.1978 147.256 57.8043 136.736 56.4872 126.19C56.3905 125.401 56.6041 124.605 57.0828 123.971C57.5615 123.336 58.2679 122.912 59.0533 122.788C60.5332 122.545 62.0082 122.302 63.4735 121.977L63.5148 121.996L66.3141 126.64C66.9241 127.502 67.0237 126.827 68.0273 126.739C68.6615 126.683 69.8911 126.56 70.382 126.149C71.9396 124.851 71.0599 124.314 70.2532 123.072" fill="#015AB1"/>
</g>
<path d="M124.403 170.268C124.403 170.268 116.333 167.615 116.212 172.076" stroke="black" stroke-width="1.32921" stroke-miterlimit="10"/>
<path opacity="0.54" d="M52.1667 215.715L36.3401 175.168C36.144 174.384 36.1294 173.565 36.2971 172.774C36.465 171.983 36.811 171.24 37.3087 170.603C37.8066 169.965 38.443 169.45 39.1701 169.095C39.8969 168.741 40.6951 168.556 41.5038 168.556H104.368C105.78 168.556 107.15 169.031 108.259 169.905C109.367 170.779 110.15 172 110.479 173.373L127.805 213.91C127.993 214.692 128 215.506 127.828 216.292C127.655 217.077 127.307 217.813 126.809 218.444C126.311 219.076 125.676 219.586 124.953 219.937C124.23 220.288 123.436 220.471 122.632 220.471H58.2635C56.8624 220.472 55.5014 220.004 54.3967 219.142C53.292 218.281 52.5071 217.075 52.1667 215.715Z" fill="white"/>
<path d="M127.03 177.108C127.03 177.108 128.34 178.308 127.842 180.024C127.472 181.295 126.209 182.096 124.957 181.661C120.972 180.284 117.383 177.944 116.508 173.966C116.095 171.952 116.005 169.884 116.243 167.842C116.435 165.949 116.715 163.905 117.351 162.105C118.323 159.339 121.3 157.412 124.189 158.744" stroke="black" stroke-width="1.32921" stroke-miterlimit="10"/>
<path d="M52.1667 215.715L36.3401 175.168C36.144 174.384 36.1294 173.565 36.2971 172.774C36.465 171.983 36.811 171.24 37.3087 170.603C37.8066 169.965 38.443 169.45 39.1701 169.095C39.8969 168.741 40.6951 168.556 41.5038 168.556H104.368C105.78 168.556 107.15 169.031 108.259 169.905C109.367 170.779 110.15 172 110.479 173.373L127.805 213.91C127.993 214.692 128 215.506 127.828 216.292C127.655 217.077 127.307 217.813 126.809 218.444C126.311 219.076 125.676 219.586 124.953 219.937C124.23 220.288 123.436 220.471 122.632 220.471H58.2635C56.8624 220.472 55.5014 220.004 54.3967 219.142C53.292 218.281 52.5071 217.075 52.1667 215.715Z" fill="#015AB1"/>
<path d="M52.1667 215.715L36.3401 175.168C36.144 174.384 36.1294 173.565 36.2971 172.774C36.465 171.983 36.811 171.24 37.3087 170.603C37.8066 169.965 38.443 169.45 39.1701 169.095C39.8969 168.741 40.6951 168.556 41.5038 168.556H104.368C105.78 168.556 107.15 169.031 108.259 169.905C109.367 170.779 110.15 172 110.479 173.373L127.805 213.91C127.993 214.692 128 215.506 127.828 216.292C127.655 217.077 127.307 217.813 126.809 218.444C126.311 219.076 125.676 219.586 124.953 219.937C124.23 220.288 123.436 220.471 122.632 220.471H58.2635C56.8624 220.472 55.5014 220.004 54.3967 219.142C53.292 218.281 52.5071 217.075 52.1667 215.715Z" stroke="black" stroke-width="1.32921" stroke-linecap="square" stroke-linejoin="round"/>
<path d="M54.4825 214.083L39.8806 176.661C39.7001 175.937 39.687 175.181 39.842 174.451C39.997 173.722 40.3163 173.037 40.7758 172.449C41.2351 171.861 41.8224 171.385 42.4929 171.058C43.1636 170.731 43.8998 170.561 44.6459 170.561H102.64C103.942 170.561 105.207 170.999 106.229 171.805C107.252 172.61 107.974 173.737 108.278 175.003L124.265 212.403C124.437 213.125 124.444 213.876 124.285 214.601C124.125 215.326 123.804 216.005 123.344 216.587C122.885 217.17 122.299 217.641 121.632 217.964C120.964 218.288 120.232 218.457 119.49 218.457H60.1055C58.8149 218.458 57.5611 218.028 56.5426 217.236C55.524 216.443 54.7991 215.334 54.4825 214.083Z" fill="#015AB1"/>
<path d="M178.6 208.212L189.719 233.943" stroke="black" stroke-width="1.32921" stroke-miterlimit="10"/>
<path d="M231.35 233.943H12.65" stroke="black" stroke-width="1.32921" stroke-miterlimit="10"/>
<path d="M127.922 117.809C126.119 119.59 123.426 119.587 121.893 117.94" stroke="black" stroke-width="1.32921" stroke-miterlimit="10"/>
<path d="M79.8687 111.085C80.8528 110.164 82.0217 109.233 83.2537 109.641C84.5829 110.084 84.9547 111.751 85.1053 113.141C85.5313 116.961 85.9566 120.777 86.3811 124.589C86.9205 129.449 87.4892 134.425 89.5085 138.891C90.4851 141.074 91.8651 143.053 93.5763 144.723" stroke="black" stroke-width="1.32921" stroke-miterlimit="10"/>
<path d="M104.635 144.694V144.614C104.499 143.048 103.906 141.556 102.929 140.324C101.953 139.093 100.635 138.175 99.141 137.686C97.5792 140.252 95.7106 142.619 93.5763 144.733C87.9807 150.297 80.7926 153.982 73.0088 155.277C73.383 156.766 74.1533 158.122 74.6855 159.556C75.2177 160.99 75.4825 162.649 74.8362 164.032C74.0197 165.796 71.6771 165.565 70.049 165.174C70.032 165.174 70.0223 165.174 70.0053 165.174" stroke="black" stroke-width="1.32921" stroke-miterlimit="10"/>
<path d="M61.6242 119.928C58.9026 120.514 56.147 120.939 53.3817 121.32C54.7643 134.238 57.379 147.283 63.7067 158.643C65.0262 161.017 66.7175 163.615 69.2447 164.854C69.5025 164.979 69.7688 165.085 70.0417 165.172C72.5762 166.006 75.6963 165.323 78.0972 164.536C83.9292 162.63 89.8462 160.344 95.1631 157.287C99.7533 154.655 105.231 150.383 104.64 144.695C104.583 144.068 104.455 143.45 104.259 142.853" stroke="black" stroke-width="1.32921" stroke-miterlimit="10"/>
<path d="M107.133 94.1595C107.541 95.86 108.472 97.3895 109.795 98.5326C111.118 99.6759 112.767 100.375 114.508 100.531C114.653 99.8297 114.967 99.1738 115.422 98.6212C117.366 96.3298 118.195 100.628 124.413 97.5423C133.03 93.2558 136.301 95.715 136.301 95.715C136.587 95.9288 136.544 97.9017 136.592 98.2614C136.835 100.31 137.054 102.349 137.294 104.395C137.44 105.644 137.584 106.883 137.72 108.123C137.837 107.912 137.967 107.708 138.109 107.512C138.893 104.735 140.296 101.455 143.318 102.866C143.931 103.165 144.463 103.603 144.874 104.147C146.878 106.781 145.36 109.325 143.263 111.208C142.737 111.793 142.149 112.318 141.511 112.776C141.856 113.49 143.265 116.326 143.265 116.336C143.411 116.623 148.336 111.048 148.703 110.441C149.252 108.952 149.546 107.383 149.573 105.797C149.653 99.2773 147 91.6882 141.719 87.9484C140.41 87.0226 140.828 86.1308 140.747 84.8721C140.742 84.804 140.716 84.7394 140.673 84.6864C140.63 84.6334 140.571 84.5948 140.506 84.5756C140.44 84.5564 140.371 84.5576 140.306 84.5788C140.241 84.6001 140.184 84.6405 140.142 84.6949C138.488 86.6 134.391 86.4105 134.391 86.4105C120.17 82.8481 115.39 89.171 112.521 90.2985C111.35 90.742 110.061 90.7634 108.876 90.3592C108.806 90.7514 108.63 91.1172 108.368 91.417C108.105 91.7169 107.766 91.9392 107.386 92.0602L107.459 92.7185C107.521 93.2223 107.406 93.7316 107.133 94.1595Z" fill="#015AB1"/>
<path d="M114.518 100.542C112.776 100.385 111.128 99.6864 109.805 98.5433C108.482 97.4002 107.551 95.8706 107.143 94.1703C106.983 93.5181 106.882 92.8527 106.842 92.1825L106.953 92.1704C107.106 92.159 107.257 92.1262 107.401 92.0732C107.78 91.9522 108.12 91.7298 108.382 91.43C108.645 91.1303 108.82 90.7644 108.89 90.3722C108.935 90.1547 108.944 89.9314 108.917 89.7112L108.552 86.4939C108.552 86.4939 111.123 88.4063 113.976 87.2885C116.829 86.1707 121.619 79.8479 135.846 83.4005C135.846 83.4005 139.059 83.5901 140.706 81.6849C140.748 81.6305 140.805 81.5902 140.869 81.569C140.934 81.5476 141.004 81.5467 141.07 81.5659C141.135 81.5851 141.193 81.6237 141.236 81.6764C141.28 81.7294 141.306 81.7943 141.311 81.8623C141.396 83.1235 141.863 84.0153 143.175 84.9387C148.455 88.6809 151.109 96.2674 151.026 102.787C151.002 105.492 150.103 108.162 148.715 110.454C148.349 111.061 143.423 116.636 143.277 116.349C143.277 116.349 141.868 113.503 141.523 112.789L141.44 112.631L141.598 112.526C142.185 112.128 142.745 111.692 143.275 111.222C145.369 109.338 146.891 106.794 144.886 104.16C144.475 103.617 143.943 103.178 143.331 102.879C140.298 101.468 138.906 104.748 138.121 107.526C137.968 108.056 137.874 108.602 137.841 109.154C137.805 108.813 137.768 108.485 137.732 108.145C137.596 106.906 137.452 105.667 137.307 104.418C137.064 102.372 136.835 100.333 136.604 98.2843C136.568 97.9343 136.604 95.9515 136.313 95.7376C136.313 95.7376 133.04 93.2785 124.425 97.565C118.207 100.651 117.378 96.35 115.434 98.6439C114.979 99.1967 114.665 99.8523 114.52 100.554C114.476 100.779 114.448 101.007 114.435 101.237C114.431 101.266 114.431 101.297 114.435 101.327C114.406 101.83 114.397 102.33 114.384 102.821C114.338 107.557 114.858 112.505 116.717 116.903C118.977 122.234 124.957 127.493 131.176 125.007C133.12 124.227 134.862 122.971 136.456 121.637" stroke="black" stroke-width="1.32921" stroke-miterlimit="10"/>
<path d="M118.773 112.093C119.392 111.886 119.69 111.111 119.44 110.363C119.19 109.614 118.485 109.176 117.867 109.383C117.248 109.589 116.95 110.364 117.2 111.112C117.451 111.861 118.155 112.3 118.773 112.093Z" fill="black"/>
<path d="M128.026 111.796C128.644 111.59 128.943 110.815 128.692 110.067C128.442 109.318 127.738 108.879 127.119 109.086C126.501 109.293 126.202 110.068 126.453 110.816C126.703 111.565 127.407 112.003 128.026 111.796Z" fill="black"/>
<path d="M124.488 113.399C124.488 113.399 121.41 115.146 121.222 113.333C121.164 112.774 120.411 107.3 120.411 107.3C120.411 107.3 117.922 104.663 114.11 106.612" stroke="black" stroke-width="1.32921" stroke-miterlimit="10"/>
<path d="M123.796 105.765C123.796 105.765 128.768 103.282 132.058 106.861" stroke="black" stroke-width="1.32921" stroke-miterlimit="10"/>
<path d="M128.354 125.617L128.926 128.547C127.125 130.207 125.852 132.586 126.223 135.091C126.554 137.312 128.371 139.38 130.235 140.544C133.351 142.488 137.494 142.335 140.847 141.098C144.125 139.883 146.961 137.577 149.017 134.763C149.985 133.403 150.63 131.84 150.902 130.192V130.163" stroke="black" stroke-width="1.32921" stroke-miterlimit="10"/>
<path d="M128.926 128.547L130.038 133.84" stroke="black" stroke-width="1.32921" stroke-miterlimit="10"/>
<path d="M144.665 115.073L146.346 126.239C146.512 127.332 147.064 128.329 147.903 129.049C148.742 129.769 149.811 130.165 150.917 130.163C156.15 131.011 161.313 132.249 166.362 133.866C186.086 140.228 198.227 157.996 201.655 177.849C203.082 186.163 203.189 194.881 201.398 203.148C200.38 207.802 198.907 213.029 195.488 216.513C191.048 221.057 184.235 219.186 178.988 217.133C162.7 210.798 149.153 199.528 137.455 186.624C131.2 179.723 123.118 174.192 123.118 174.192" stroke="black" stroke-width="1.32921" stroke-miterlimit="10"/>
<path d="M59.8649 205.707C58.0376 205.69 56.4459 204.215 56.0352 202.162C55.2236 198.123 55.0098 191.878 60.9317 190.515C68.331 188.814 74.0221 196.872 76.8117 201.965C77.7497 203.666 76.6878 205.853 74.9406 205.853L59.8649 205.707Z" fill="#D7E8F0"/>
<path d="M62.3078 187.086C63.8785 186.04 63.9029 183.315 62.3615 180.999C60.8204 178.683 58.2976 177.653 56.7266 178.698C55.1556 179.743 55.1315 182.468 56.6726 184.784C58.214 187.101 60.7368 188.131 62.3078 187.086Z" fill="#D7E8F0"/>
<path d="M183.909 223.346C183.795 223.363 183.666 223.38 183.554 223.406H183.511L166.226 223.317L140.291 223.183C140.191 223.183 140.094 223.183 139.997 223.183C139.804 223.178 139.612 223.164 139.421 223.139C141.178 222.935 142.807 222.118 144.021 220.831C145.234 219.544 145.956 217.87 146.057 216.104C146.062 216.013 146.062 215.921 146.057 215.83V215.689C146.05 213.961 145.448 212.288 144.352 210.952C143.256 209.616 141.734 208.698 140.04 208.353C139.863 208.309 139.669 208.282 139.481 208.255C139.775 208.229 140.067 208.209 140.351 208.209L162.263 208.326L166.296 208.343L171.737 208.37C173.6 208.54 175.333 209.398 176.596 210.778C177.859 212.158 178.562 213.959 178.568 215.83C178.568 216.183 178.542 216.535 178.488 216.884C178.229 218.665 177.339 220.294 175.981 221.474C174.622 222.655 172.886 223.309 171.086 223.317H184.252C183.494 223.317 183.705 223.317 183.909 223.346Z" fill="white"/>
<path d="M148.849 232.384C149.343 232.88 149.93 233.274 150.577 233.542C151.224 233.81 151.918 233.946 152.618 233.944H139.89C137.46 233.944 136.133 233.351 135.166 232.384C134.172 231.386 133.612 230.035 133.608 228.627C133.608 225.711 135.999 223.32 139.89 223.32H152.618C151.567 223.318 150.54 223.629 149.665 224.212C148.791 224.795 148.109 225.624 147.707 226.595C147.305 227.566 147.2 228.634 147.405 229.665C147.61 230.695 148.117 231.641 148.861 232.384H148.849Z" fill="#D7E8F0"/>
<path d="M190.886 215.963C190.883 217.086 190.621 218.192 190.123 219.198C189.766 219.958 189.278 220.648 188.679 221.236C187.692 222.214 186.453 222.898 185.1 223.212C184.542 223.341 183.971 223.406 183.399 223.406C183.515 223.38 183.642 223.363 183.754 223.346C183.55 223.326 183.338 223.319 184.099 223.319H170.931C172.731 223.312 174.47 222.659 175.829 221.478C177.188 220.297 178.079 218.667 178.337 216.884C178.391 216.535 178.418 216.183 178.417 215.83C178.412 213.959 177.708 212.157 176.444 210.778C175.181 209.398 173.448 208.539 171.584 208.37L178.692 208.406L183.44 208.433C185.424 208.45 187.321 209.251 188.716 210.662C190.112 212.073 190.892 213.979 190.886 215.963Z" fill="#015AB1"/>
<path d="M190.886 215.961C190.871 217.947 190.07 219.845 188.658 221.242C187.246 222.638 185.338 223.417 183.353 223.409L140.118 223.186C139.829 223.186 139.54 223.164 139.248 223.135C141.071 222.928 142.754 222.06 143.979 220.695C145.205 219.331 145.887 217.564 145.896 215.73C145.906 213.896 145.242 212.122 144.031 210.744C142.82 209.367 141.146 208.481 139.326 208.256C139.615 208.225 139.905 208.211 140.196 208.212L183.43 208.436C185.416 208.449 187.315 209.249 188.712 210.659C190.109 212.069 190.891 213.976 190.886 215.961Z" stroke="black" stroke-width="1.32921" stroke-linecap="square" stroke-linejoin="round"/>
<path d="M178.412 215.828C178.409 217.813 177.618 219.715 176.215 221.119C174.811 222.523 172.908 223.313 170.923 223.317H140.162C139.871 223.315 139.581 223.299 139.292 223.268C141.113 223.052 142.792 222.175 144.01 220.804C145.228 219.433 145.9 217.663 145.9 215.829C145.9 213.995 145.228 212.225 144.01 210.853C142.792 209.482 141.113 208.606 139.292 208.389C139.581 208.363 139.873 208.343 140.162 208.343H170.923C172.907 208.348 174.809 209.138 176.212 210.54C177.616 211.942 178.407 213.843 178.412 215.828Z" stroke="black" stroke-width="1.32921" stroke-linecap="square" stroke-linejoin="round"/>
<path d="M133.608 228.628C133.608 229.325 133.745 230.015 134.012 230.659C134.279 231.303 134.67 231.888 135.163 232.38C136.135 233.352 137.455 233.943 139.887 233.943H184.096C183.336 233.943 183.542 233.928 183.749 233.909C182.455 233.757 181.263 233.135 180.397 232.161C179.531 231.188 179.053 229.931 179.053 228.628C179.053 227.326 179.531 226.069 180.397 225.095C181.263 224.122 182.455 223.5 183.749 223.348C183.542 223.329 183.336 223.314 184.096 223.314H139.887C135.994 223.316 133.608 225.708 133.608 228.628Z" stroke="black" stroke-width="1.32921" stroke-linecap="square" stroke-linejoin="round"/>
<path d="M147.289 228.628C147.292 230.037 147.853 231.387 148.849 232.383C149.845 233.379 151.195 233.94 152.603 233.943H183.132C183.336 233.943 183.542 233.928 183.749 233.909C182.455 233.757 181.263 233.135 180.397 232.161C179.531 231.188 179.054 229.931 179.054 228.628C179.054 227.326 179.531 226.069 180.397 225.095C181.263 224.122 182.455 223.5 183.749 223.348C183.542 223.329 183.336 223.314 183.132 223.314H152.603C151.195 223.318 149.846 223.879 148.85 224.875C147.854 225.871 147.293 227.22 147.289 228.628Z" stroke="black" stroke-width="1.32921" stroke-linecap="square" stroke-linejoin="round"/>
<path d="M97.8021 188.082H84.1649C83.5409 188.081 82.9307 187.898 82.4088 187.557C81.8868 187.215 81.4754 186.729 81.2246 186.157C81.1279 185.945 81.0864 185.711 81.1043 185.478C81.1221 185.245 81.1986 185.02 81.3267 184.825C81.4547 184.629 81.6302 184.47 81.8367 184.36C82.0433 184.251 82.2739 184.195 82.5077 184.199H97.005C96.3222 185.348 96.6697 186.945 97.8021 188.082Z" fill="#D7E8F0"/>
<path d="M106.621 186.677C106.62 187.049 106.472 187.405 106.209 187.668C105.946 187.931 105.59 188.079 105.218 188.079H97.8021C96.6697 186.944 96.3222 185.348 97.0051 184.191H103.554C104.177 184.191 104.787 184.372 105.309 184.712C105.832 185.052 106.244 185.536 106.497 186.106C106.575 186.286 106.617 186.48 106.621 186.677Z" fill="#015AB1"/>
<path d="M103.209 188.082C103.17 188.156 103.126 188.227 103.075 188.293C102.103 189.622 99.9915 189.751 98.3513 188.551C98.1574 188.408 97.9739 188.251 97.8021 188.082C96.6697 186.947 96.3222 185.35 97.0051 184.194C97.0435 184.12 97.0882 184.049 97.1387 183.982C98.1107 182.643 100.213 182.524 101.853 183.715C102.05 183.863 102.236 184.025 102.409 184.201C103.532 185.331 103.882 186.918 103.209 188.082Z" fill="white"/>
<path d="M110.049 195.239C110.047 195.611 109.897 195.967 109.633 196.229C109.369 196.491 109.012 196.638 108.64 196.638H94.3296C95.0197 195.477 94.6747 193.892 93.5399 192.75H106.983C107.607 192.75 108.217 192.932 108.74 193.273C109.262 193.615 109.674 194.101 109.925 194.672C110.006 194.85 110.048 195.043 110.049 195.239Z" fill="#015AB1"/>
<path d="M94.3296 196.638H87.5961C86.9728 196.638 86.3626 196.457 85.8402 196.117C85.3177 195.777 84.9053 195.293 84.6534 194.723C84.5739 194.544 84.5319 194.352 84.5294 194.157C84.5292 193.973 84.5651 193.791 84.6354 193.62C84.7056 193.451 84.8086 193.296 84.9386 193.166C85.0686 193.036 85.2232 192.933 85.393 192.863C85.5631 192.793 85.7452 192.757 85.9291 192.757H93.5399C94.6747 193.892 95.027 195.476 94.3296 196.638Z" fill="#D7E8F0"/>
<path d="M94.3296 196.638C94.298 196.714 94.2562 196.786 94.2057 196.852C93.2337 198.188 91.1293 198.31 89.4915 197.116C89.2932 196.969 89.1065 196.806 88.9326 196.63C87.8075 195.496 87.4624 193.911 88.1355 192.742C88.1744 192.668 88.2191 192.596 88.2692 192.529C89.2412 191.199 91.3528 191.071 92.9907 192.274C93.1858 192.415 93.3693 192.572 93.5398 192.742C94.6746 193.892 95.027 195.476 94.3296 196.638Z" fill="white"/>
<path d="M99.0973 205.136H90.5291C89.906 205.135 89.2966 204.954 88.7744 204.614C88.2519 204.274 87.8393 203.791 87.5864 203.221C87.4899 203.008 87.4488 202.774 87.4668 202.54C87.485 202.307 87.5616 202.082 87.6896 201.886C87.8179 201.69 87.9934 201.529 88.1999 201.419C88.4067 201.309 88.6376 201.253 88.8718 201.255H98.3002C97.6247 202.419 97.9722 204.001 99.0973 205.136Z" fill="#015AB1"/>
<path d="M112.982 203.746C112.98 204.115 112.832 204.469 112.57 204.73C112.307 204.99 111.952 205.136 111.583 205.136H99.0973C97.9722 204.001 97.6247 202.417 98.3002 201.248H109.916C110.54 201.248 111.15 201.43 111.673 201.771C112.195 202.112 112.607 202.598 112.858 203.17C112.938 203.351 112.981 203.547 112.982 203.746Z" fill="#D7E8F0"/>
<path d="M104.504 205.136C104.465 205.211 104.42 205.282 104.37 205.35C103.398 206.686 101.296 206.808 99.6561 205.615C99.4591 205.466 99.2732 205.304 99.0997 205.129C97.9746 203.994 97.6271 202.41 98.3026 201.241C98.3398 201.166 98.3836 201.094 98.4339 201.027C99.4059 199.698 101.518 199.583 103.158 200.772C103.353 200.913 103.536 201.07 103.707 201.241C104.839 202.39 105.184 203.984 104.504 205.136Z" fill="white"/>
<path d="M39.7713 127.665L39.9851 127.726L39.9049 128.037C39.8541 127.915 39.8094 127.791 39.7713 127.665Z" fill="#353642"/>
<path d="M77.7998 147.106C80.9986 146.167 82.6792 142.298 81.5539 138.465C80.4285 134.631 76.9233 132.285 73.7247 133.224C70.5258 134.163 68.8452 138.032 69.9705 141.865C71.0959 145.699 74.6012 148.045 77.7998 147.106Z" fill="#D7E8F0"/>
</svg>
