<svg width="95" height="57" viewBox="0 0 95 57" fill="none" xmlns="http://www.w3.org/2000/svg">
<path d="M24.9231 55.1619C22.1617 52.1484 19.4347 49.1006 16.6046 46.1559C14.7369 44.208 14.9432 41.9508 16.8566 40.1404C20.4315 36.7603 23.9835 33.3458 27.5699 29.9542C32.7489 25.0502 37.9509 20.1576 43.1299 15.2536C48.1256 10.5214 53.0984 5.77779 58.0941 1.04562C58.3233 0.82792 58.6326 0.65605 58.4951 0.300851C58.3462 -0.0887222 57.991 0.0831482 57.7045 0.0946063C55.264 0.151896 52.8119 0.243561 50.3714 0.0716902C48.985 -0.0199741 47.7704 0.415431 46.8079 1.52686C43.5997 5.23926 40.0362 8.60792 36.4728 11.9766C32.7833 15.4598 29.1397 19.0118 25.2898 22.3346C22.2648 24.9471 19.3201 27.6512 16.4212 30.3896C13.8432 32.8187 11.0474 35.076 9.25997 38.204C7.14023 41.8935 7.00274 45.5715 9.36309 49.2266C10.7037 51.312 12.7088 52.7672 14.439 54.4859C15.791 55.8265 17.292 56.6973 19.3889 56.4681C21.0044 56.2963 22.6315 56.365 24.396 56.3994C25.0491 56.4108 25.4043 55.6431 24.9575 55.1619H24.9231Z" fill="#0C0C0C"/>
<path d="M9.76408 31.7646C10.062 31.4782 10.3484 31.1803 10.6349 30.8709C12.2276 29.1178 13.9921 27.5252 15.6993 25.8867C16.1462 25.4512 16.4899 24.844 17.2003 24.7523C18.2316 23.2284 19.6982 22.117 21.0044 20.8566C24.7512 17.2702 28.5667 13.7526 32.3479 10.2121C32.4166 10.1433 32.4854 10.086 32.5656 10.0287C33.0353 9.63916 33.4937 9.22668 33.9176 8.79127C36.3238 6.29342 38.8904 3.95598 41.5372 1.69875C41.6174 1.58417 41.6976 1.46959 41.7778 1.36647C41.9726 0.999808 42.6601 0.81648 42.4882 0.335242C42.2934 -0.191827 41.6862 0.0602494 41.2622 0.0602494C38.7414 0.0373334 36.2207 0.0717075 33.6999 0.0487914C33.0812 0.0487914 32.5885 0.220662 32.1531 0.633151C31.0302 1.71021 29.9188 2.81018 28.7844 3.87577C25.8168 6.66008 22.9752 9.58187 19.8586 12.2172C19.6065 12.5037 19.3659 12.7901 19.0909 13.0537C16.5816 15.4828 14.1181 17.9692 11.5286 20.3066C10.3026 21.418 9.24847 22.7586 7.7933 23.618C7.65581 23.8013 7.54122 23.9961 7.39227 24.1565C5.1465 26.4939 2.95801 28.8657 1.50284 31.8448C-0.364817 35.6947 1.25077 40.2092 3.95486 42.7873C4.49339 38.2842 6.67041 34.7552 9.76408 31.7646Z" fill="#0C0C0C"/>
<path d="M61.3941 55.1849C58.6327 52.1714 55.9057 49.1236 53.0755 46.1788C51.2079 44.231 51.4141 41.9737 53.3276 40.1634C56.9025 36.7833 60.4545 33.3688 64.0409 29.9772C69.2199 25.0731 74.4219 20.1806 79.6009 15.2765C84.5966 10.5444 89.5694 5.80074 94.5651 1.06857C94.7942 0.85087 95.1036 0.679 94.9661 0.323801C94.8172 -0.0657723 94.462 0.106098 94.1755 0.117556C91.7349 0.174846 89.2829 0.266511 86.8424 0.0946401C85.4559 0.00297587 84.2414 0.438381 83.2789 1.54981C80.0707 5.26221 76.5072 8.63087 72.9438 11.9995C69.2543 15.4828 65.6106 19.0348 61.7607 22.3576C58.7358 24.97 55.7911 27.6741 52.8922 30.4126C50.3142 32.8417 47.5184 35.0989 45.7309 38.227C45.158 39.2238 44.7456 40.2092 44.4706 41.2061C43.531 40.2207 42.6029 39.2238 41.6633 38.2384C42.706 35.7864 44.2987 33.6781 46.258 31.7761C46.5559 31.4896 46.8424 31.1917 47.1288 30.8824C48.7215 29.1293 50.486 27.5366 52.1933 25.8981C52.6401 25.4627 52.9839 24.8554 53.6943 24.7638C54.7255 23.2399 56.1921 22.1284 57.4983 20.8681C61.2451 17.2817 65.0606 13.7641 68.8418 10.2235C68.9105 10.1548 68.9793 10.0975 69.0595 10.0402C69.5293 9.65064 69.9876 9.23815 70.4115 8.80274C72.8177 6.30489 75.3843 3.96745 78.0311 1.71022C78.1113 1.59564 78.1915 1.48106 78.2718 1.37794C78.4665 1.01128 79.154 0.827954 78.9822 0.346717C78.7874 -0.180353 78.1801 0.0717241 77.7561 0.0717241C75.2354 0.048808 72.7146 0.0831821 70.1938 0.060266C69.5751 0.060266 69.0824 0.232136 68.647 0.644626C67.5241 1.72168 66.4127 2.82165 65.2784 3.88725C62.3107 6.67155 59.4691 9.59335 56.3525 12.2287C56.1005 12.5151 55.8598 12.8016 55.5849 13.0651C53.0755 15.4942 50.6121 17.9806 48.0226 20.3181C46.7965 21.4295 45.7424 22.7701 44.2872 23.6294C44.1497 23.8128 44.0352 24.0076 43.8862 24.168C41.6404 26.5054 39.4519 28.8772 37.9968 31.8563C37.6989 32.475 37.4926 33.1052 37.3551 33.7354C36.2666 32.6011 35.1781 31.4553 34.101 30.3095C33.4479 29.6105 32.9667 29.7022 32.2105 30.6418C31.0303 32.0969 29.6897 33.4146 28.2231 34.5833C27.146 35.4427 26.9971 35.7979 27.7304 36.5426C30.3084 39.2009 32.8407 41.9165 35.3729 44.6206C38.8447 48.333 42.3165 52.0454 45.7768 55.7692C46.2809 56.3077 46.8424 56.5484 47.5986 56.5254C49.2027 56.4796 50.8183 56.514 52.4224 56.514C53.1672 56.514 53.9005 56.514 54.6453 56.514C55.012 56.5484 55.3901 56.5484 55.7911 56.514C56.3525 56.514 56.914 56.514 57.4869 56.514C57.7733 56.514 58.1515 56.6515 58.3462 56.3994C59.1598 56.3994 59.9962 56.4223 60.867 56.4452C61.5201 56.4567 61.8753 55.689 61.4285 55.2078L61.3941 55.1849Z" fill="#0C0C0C"/>
<path d="M94.3817 55.4713C91.5973 52.5266 88.8016 49.5933 86.0173 46.6486C83.359 43.8414 80.7237 41.0342 78.0654 38.2384C75.5676 35.6031 73.0468 33.0021 70.5604 30.3667C69.9073 29.6678 69.4261 29.7595 68.6698 30.699C67.4896 32.1542 66.1491 33.4719 64.6824 34.6406C63.6054 35.4999 63.4564 35.8551 64.1897 36.5999C66.7678 39.2582 69.3 41.9737 71.8322 44.6778C75.304 48.3902 78.7758 52.1026 82.2361 55.8265C82.7403 56.365 83.3017 56.6056 84.058 56.5827C85.6621 56.5369 87.2777 56.5713 88.8818 56.5713C90.5661 56.5713 92.2505 56.5713 93.9348 56.5713C94.2556 56.5713 94.7025 56.7431 94.8629 56.3421C95.0118 55.964 94.6108 55.7463 94.3817 55.5057V55.4713Z" fill="#0C0C0C"/>
</svg>
