<svg width="61" height="59" viewBox="0 0 61 59" fill="none" xmlns="http://www.w3.org/2000/svg">
<path d="M6.8584 40.4729L11.6258 26.1734C13.7867 19.6908 14.8671 16.4496 17.4229 15.8487C19.9787 15.2422 22.3963 17.6597 27.2257 22.4921L36.7606 32.0241C41.5901 36.8564 44.0077 39.2711 43.404 41.8269C42.8003 44.3827 39.559 45.466 33.0764 47.624L18.777 52.3914C10.977 54.9924 7.07561 56.2928 5.01631 54.2335C2.957 52.1742 4.25747 48.2728 6.8584 40.4729Z" fill="black" fill-opacity="0.1" stroke="black" stroke-opacity="0.1" stroke-width="6.50274" stroke-linecap="round"/>
<path d="M30.0552 47.7616C30.0552 47.7616 27.9169 41.327 27.9169 37.0701C27.9169 32.8105 30.0552 26.373 30.0552 26.373M18.2918 50.9718C18.2918 50.9718 16.4864 43.2057 16.1535 38.1365C15.6034 29.761 18.2918 16.7507 18.2918 16.7507M36.4729 24.2348L36.8763 22.2037C37.2882 20.1528 38.7663 18.48 40.7495 17.8199C41.724 17.4947 42.5952 16.9177 43.2749 16.1474C43.9546 15.377 44.4186 14.4407 44.6198 13.4333L45.0261 11.4022M45.105 33.3944L45.7031 33.7414C47.5565 34.8134 49.8866 34.5764 51.4889 33.1575C52.199 32.5272 53.0747 32.1134 54.0125 31.9649C54.9503 31.8165 55.9109 31.9396 56.781 32.3196L57.6019 32.6807M23.1721 3.84766C22.7093 4.60429 22.5147 5.49465 22.6196 6.37534C22.7245 7.25603 23.1228 8.07577 23.7504 8.70253L24.024 8.97899C25.1354 10.0876 25.5445 11.7153 25.0903 13.2189" fill="black" fill-opacity="0.1"/>
<path d="M30.0552 47.7616C30.0552 47.7616 27.9169 41.327 27.9169 37.0701C27.9169 32.8105 30.0552 26.373 30.0552 26.373M18.2918 50.9718C18.2918 50.9718 16.4864 43.2057 16.1535 38.1365C15.6034 29.761 18.2918 16.7507 18.2918 16.7507M36.4729 24.2348L36.8763 22.2037C37.2882 20.1528 38.7663 18.48 40.7495 17.8199C41.724 17.4947 42.5952 16.9177 43.2749 16.1474C43.9546 15.377 44.4186 14.4407 44.6198 13.4333L45.0261 11.4022M45.105 33.3944L45.7031 33.7414C47.5565 34.8134 49.8866 34.5764 51.4889 33.1575C52.199 32.5272 53.0747 32.1134 54.0125 31.9649C54.9503 31.8165 55.9109 31.9396 56.781 32.3196L57.6019 32.6807M23.1721 3.84766C22.7093 4.60429 22.5147 5.49465 22.6196 6.37534C22.7245 7.25603 23.1228 8.07577 23.7504 8.70253L24.024 8.97899C25.1354 10.0876 25.5445 11.7153 25.0903 13.2189" stroke="black" stroke-opacity="0.1" stroke-width="6.50274" stroke-linecap="round"/>
<path d="M15.084 7.12367C15.2248 6.98327 15.3918 6.87197 15.5756 6.79612C15.7594 6.72028 15.9563 6.68138 16.1552 6.68164C16.354 6.6819 16.5508 6.72132 16.7344 6.79765C16.918 6.87398 17.0847 6.98572 17.2251 7.12649C17.3655 7.26726 17.4768 7.43431 17.5527 7.6181C17.6285 7.80188 17.6674 7.99881 17.6671 8.19763C17.6669 8.39645 17.6275 8.59327 17.5511 8.77686C17.4748 8.96045 17.3631 9.1272 17.2223 9.2676C16.938 9.55116 16.5527 9.71016 16.1512 9.70963C15.7496 9.7091 15.3647 9.54908 15.0812 9.26478C14.7976 8.98048 14.6386 8.59518 14.6392 8.19364C14.6397 7.79211 14.7997 7.40723 15.084 7.12367ZM29.8348 16.1987C29.9754 16.0581 30.1423 15.9466 30.326 15.8705C30.5097 15.7944 30.7066 15.7553 30.9054 15.7553C31.1042 15.7553 31.3011 15.7944 31.4848 15.8705C31.6684 15.9466 31.8354 16.0581 31.9759 16.1987C32.1165 16.3393 32.228 16.5062 32.3041 16.6899C32.3802 16.8736 32.4194 17.0704 32.4194 17.2693C32.4194 17.4681 32.3802 17.665 32.3041 17.8486C32.228 18.0323 32.1165 18.1992 31.9759 18.3398C31.692 18.6237 31.3069 18.7833 30.9054 18.7833C30.5038 18.7833 30.1188 18.6237 29.8348 18.3398C29.5509 18.0559 29.3914 17.6708 29.3914 17.2693C29.3914 16.8677 29.5509 16.4826 29.8348 16.1987ZM43.9396 24.6616C44.0802 24.521 44.2471 24.4095 44.4308 24.3334C44.6145 24.2573 44.8114 24.2182 45.0102 24.2182C45.209 24.2182 45.4059 24.2573 45.5896 24.3334C45.7733 24.4095 45.9402 24.521 46.0808 24.6616C46.2213 24.8022 46.3329 24.9691 46.4089 25.1528C46.485 25.3365 46.5242 25.5333 46.5242 25.7321C46.5242 25.931 46.485 26.1278 46.4089 26.3115C46.3329 26.4952 46.2213 26.6621 46.0808 26.8027C45.7968 27.0866 45.4117 27.2461 45.0102 27.2461C44.6087 27.2461 44.2236 27.0866 43.9396 26.8027C43.6557 26.5188 43.4962 26.1337 43.4962 25.7321C43.4962 25.3306 43.6557 24.9455 43.9396 24.6616ZM49.3023 39.2065C49.4429 39.0659 49.6098 38.9544 49.7935 38.8783C49.9772 38.8022 50.174 38.763 50.3728 38.763C50.5717 38.763 50.7685 38.8022 50.9522 38.8783C51.1359 38.9544 51.3028 39.0659 51.4434 39.2065C51.584 39.3471 51.6955 39.514 51.7716 39.6977C51.8477 39.8813 51.8868 40.0782 51.8868 40.277C51.8868 40.4759 51.8477 40.6727 51.7716 40.8564C51.6955 41.0401 51.584 41.207 51.4434 41.3476C51.1595 41.6315 50.7744 41.791 50.3728 41.791C49.9713 41.791 49.5862 41.6315 49.3023 41.3476C49.0184 41.0637 48.8589 40.6786 48.8589 40.277C48.8589 39.8755 49.0184 39.4904 49.3023 39.2065Z" fill="black" fill-opacity="0.1"/>
<path d="M50.1602 17.7702C48.2702 19.6602 49.6242 25.1442 49.6242 25.1442C49.6242 25.1442 55.1082 26.5011 56.9982 24.6082C59.0011 22.6053 57.8671 19.9818 54.7809 19.9875C54.7894 16.9013 52.1631 15.7673 50.1602 17.7702Z" fill="black" fill-opacity="0.1" stroke="black" stroke-opacity="0.1" stroke-width="4.33516" stroke-linejoin="round"/>
<path d="M38.3854 5.64781L38.3092 5.92427C38.2246 6.22329 38.1795 6.37562 38.1992 6.52231C38.2189 6.669 38.3008 6.79876 38.4615 7.05547L38.6111 7.28679C39.1781 8.1895 39.463 8.64085 39.2712 9.0104C39.0737 9.37995 38.5321 9.42226 37.4432 9.50689L37.1611 9.52946C36.8508 9.55485 36.6984 9.56613 36.563 9.63665C36.4276 9.70718 36.3261 9.82848 36.1258 10.0739L35.9424 10.2968C35.2372 11.1543 34.8846 11.5831 34.4812 11.5295C34.0778 11.4731 33.8888 10.971 33.5192 9.96389L33.4233 9.70436C33.3161 9.41662 33.2653 9.27557 33.161 9.16837C33.0566 9.06682 32.9127 9.01322 32.6278 8.90885L32.3683 8.81293C31.3612 8.44057 30.8591 8.25438 30.8026 7.85381C30.7462 7.44759 31.1778 7.09214 32.0354 6.3869L32.2582 6.20354C32.5009 6.00607 32.625 5.90452 32.6955 5.76911C32.766 5.63371 32.7801 5.47855 32.8027 5.16825L32.8253 4.88615C32.9099 3.80008 32.9522 3.25564 33.3189 3.06099C33.6885 2.86634 34.1398 3.15126 35.0425 3.72109L35.2767 3.86778C35.5306 4.0314 35.6603 4.11039 35.8098 4.13013C35.9565 4.1527 36.106 4.10757 36.4079 4.02294L36.6815 3.94677C37.7422 3.64493 38.2697 3.49542 38.5546 3.77751C38.8367 4.05961 38.6872 4.58995 38.3854 5.64781Z" fill="black" fill-opacity="0.1" stroke="black" stroke-opacity="0.1" stroke-width="4.33516"/>
</svg>
