<svg width="19" height="16" viewBox="0 0 19 16" fill="none" xmlns="http://www.w3.org/2000/svg">
<path d="M10.865 16C9.837 16 8.85267 15.8093 7.912 15.428C6.972 15.0467 6.12533 14.5133 5.372 13.828L6.105 13.115C6.76433 13.7063 7.48833 14.1683 8.277 14.501C9.065 14.8337 9.92767 15 10.865 15C12.8117 15 14.465 14.32 15.825 12.96C17.185 11.6 17.865 9.94667 17.865 8C17.865 6.06667 17.1817 4.41667 15.815 3.05C14.4483 1.68333 12.7983 1 10.865 1C8.93167 1 7.28167 1.68333 5.915 3.05C4.54833 4.41667 3.865 6.06667 3.865 8V9.387L6.017 7.235L6.73 7.923L3.365 11.288L0 7.923L0.713 7.235L2.865 9.412V8C2.865 6.89 3.07367 5.85033 3.491 4.881C3.90833 3.91167 4.47933 3.06433 5.204 2.339C5.92933 1.61433 6.77667 1.04333 7.746 0.626C8.71467 0.208667 9.754 0 10.864 0C11.9733 0 13.0133 0.208667 13.984 0.626C14.9533 1.04333 15.8007 1.61433 16.526 2.339C17.2507 3.06433 17.8217 3.91133 18.239 4.88C18.6563 5.84933 18.865 6.88867 18.865 7.998C18.865 10.2173 18.0873 12.1057 16.532 13.663C14.976 15.221 13.087 16 10.865 16ZM8.865 11.77C8.61433 11.77 8.40433 11.685 8.235 11.515C8.065 11.3457 7.98 11.1357 7.98 10.885V7.885C7.98 7.63433 8.076 7.42433 8.268 7.255C8.46 7.08567 8.69733 7.00067 8.98 7V5.885C8.98 5.36633 9.16467 4.92267 9.534 4.554C9.90333 4.18467 10.347 4 10.865 4C11.383 4 11.8267 4.18467 12.196 4.554C12.5653 4.92267 12.75 5.366 12.75 5.884V7C13.0333 7 13.2707 7.08467 13.462 7.254C13.6533 7.42333 13.7493 7.63333 13.75 7.884V10.884C13.75 11.1353 13.665 11.3453 13.495 11.514C13.3257 11.684 13.1157 11.769 12.865 11.769H8.865V11.77ZM9.75 7H11.98V5.892C11.98 5.57867 11.8713 5.313 11.654 5.095C11.4367 4.87767 11.1737 4.769 10.865 4.769C10.5563 4.769 10.293 4.87767 10.075 5.095C9.85833 5.31233 9.75 5.578 9.75 5.892V7Z" fill="black"/>
</svg>
