<svg width="23" height="24" viewBox="0 0 23 24" fill="none" xmlns="http://www.w3.org/2000/svg">
<path d="M8.38023 12.8983C8.53104 12.8983 12.03 13.0261 14.1112 12.5916H14.1263C16.5242 12.0933 19.8573 10.6622 20.7169 5.98551C20.7169 5.98551 22.6323 0.133301 13.1309 0.133301H4.9718C4.23281 0.133301 3.59939 0.5933 3.47873 1.20663L0.00998546 19.811C-0.0654221 20.1944 0.296534 20.5521 0.748979 20.5521H5.92194L7.18879 13.7544C7.27928 13.2688 7.77697 12.8983 8.38023 12.8983Z" fill="#015AB1"/>
<path d="M22.0442 6.89282C20.8226 11.6589 16.9768 14.1761 10.8537 14.1761H8.63673L7.08333 22.5072C7.023 22.8395 7.32463 23.1333 7.71675 23.1333H10.5822C11.095 23.1333 11.5475 22.8139 11.6229 22.3795C11.7435 21.8683 12.4071 18.1372 12.5428 17.4984C12.6182 17.0639 13.0707 16.7445 13.5835 16.7445H14.247C18.5 16.7445 21.8331 15.275 22.8134 11.0456C23.2055 9.33337 22.9943 7.92782 22.0442 6.89282Z" fill="#015AB1"/>
</svg>
