<svg width="21" height="15" viewBox="0 0 24 17" fill="none" xmlns="http://www.w3.org/2000/svg">
<path d="M11.7329 11.5171C12.6826 10.6934 13.3637 9.58823 13.6841 8.35148C14.0044 7.11472 13.9483 5.80623 13.5235 4.60345C13.0988 3.40068 12.3258 2.36182 11.3094 1.62777C10.2931 0.893723 9.08253 0.5 7.84197 0.5C6.60142 0.5 5.39088 0.893723 4.37453 1.62777C3.35818 2.36182 2.58519 3.40068 2.1604 4.60345C1.73561 5.80623 1.67958 7.11472 1.99989 8.35148C2.32021 9.58823 3.00138 10.6934 3.95102 11.5171C2.46813 12.209 1.18305 13.2836 0.219747 14.6372C0.0418258 14.8874 -0.0324959 15.2003 0.0131322 15.507C0.0587603 15.8138 0.220601 16.0892 0.46305 16.2728C0.705499 16.4564 1.0087 16.5331 1.30595 16.4861C1.60319 16.439 1.87014 16.272 2.04806 16.0218C2.71489 15.082 3.58702 14.3176 4.59369 13.7907C5.60036 13.2638 6.71322 12.9892 7.84197 12.9892C8.97073 12.9892 10.0836 13.2638 11.0903 13.7907C12.0969 14.3176 12.9691 15.082 13.6359 16.0218C13.8138 16.2721 14.0808 16.4392 14.3781 16.4864C14.6755 16.5336 14.9788 16.4569 15.2214 16.2733C15.4639 16.0897 15.6259 15.8142 15.6716 15.5074C15.7173 15.2005 15.6431 14.8875 15.4651 14.6372C14.5013 13.2838 13.2159 12.2093 11.7329 11.5171ZM4.06251 6.74529C4.06251 5.97391 4.28417 5.21986 4.69947 4.57848C5.11476 3.93711 5.70503 3.43722 6.39564 3.14203C7.08624 2.84683 7.84616 2.7696 8.57931 2.92009C9.31245 3.07057 9.98589 3.44203 10.5145 3.98747C11.043 4.53292 11.403 5.22785 11.5488 5.98441C11.6946 6.74096 11.6198 7.52515 11.3337 8.23781C11.0477 8.95046 10.5633 9.55958 9.94173 9.98814C9.3202 10.4167 8.58948 10.6454 7.84197 10.6454C6.8396 10.6454 5.87828 10.2345 5.16949 9.5031C4.4607 8.77168 4.06251 7.77967 4.06251 6.74529ZM23.5362 16.2685C23.4161 16.3595 23.2799 16.4252 23.1353 16.4619C22.9906 16.4985 22.8404 16.5054 22.6931 16.4822C22.5459 16.4589 22.4045 16.4059 22.2771 16.3262C22.1498 16.2466 22.0388 16.1418 21.9507 16.0179C21.2822 15.0799 20.4097 14.3168 19.4034 13.7902C18.3971 13.2635 17.2851 12.9879 16.1568 12.9855C15.8561 12.9855 15.5677 12.8622 15.355 12.6428C15.1424 12.4234 15.0229 12.1258 15.0229 11.8155C15.0229 11.5052 15.1424 11.2076 15.355 10.9881C15.5677 10.7687 15.8561 10.6454 16.1568 10.6454C16.7133 10.6448 17.2628 10.5173 17.766 10.2721C18.2692 10.0269 18.7137 9.6701 19.0679 9.22711C19.422 8.78412 19.6769 8.2659 19.8145 7.70947C19.9521 7.15304 19.9689 6.57212 19.8637 6.00821C19.7585 5.4443 19.534 4.91131 19.2061 4.44732C18.8782 3.98332 18.4551 3.59977 17.9669 3.32406C17.4788 3.04835 16.9376 2.88729 16.3822 2.85237C15.8267 2.81745 15.2706 2.90954 14.7537 3.12206C14.6152 3.18057 14.4668 3.21022 14.3172 3.20929C14.1676 3.20836 14.0196 3.17687 13.8818 3.11664C13.744 3.05641 13.6191 2.96863 13.5144 2.85836C13.4096 2.74808 13.327 2.6175 13.2714 2.47415C13.2158 2.33079 13.1882 2.17748 13.1903 2.02308C13.1924 1.86867 13.224 1.71621 13.2835 1.5745C13.3429 1.43278 13.429 1.30461 13.5366 1.19737C13.6443 1.09013 13.7715 1.00595 13.9108 0.949678C15.2453 0.398339 16.7264 0.355561 18.0887 0.829016C19.4509 1.30247 20.6052 2.26119 21.3445 3.53328C22.0838 4.80537 22.3598 6.30762 22.123 7.77069C21.8863 9.23376 21.1522 10.5619 20.0525 11.5171C21.5353 12.209 22.8204 13.2836 23.7837 14.6372C23.9599 14.8876 24.0327 15.1999 23.9863 15.5056C23.9399 15.8113 23.7781 16.0856 23.5362 16.2685Z" fill="#1F1F1F"/>
</svg>
