<svg width="17" height="16" viewBox="0 0 17 16" fill="none" xmlns="http://www.w3.org/2000/svg">
<path d="M16.4266 15.2484C15.1882 13.0209 13.2439 11.4579 10.9848 10.795C12.0831 10.2139 12.9614 9.26468 13.4781 8.10043C13.9947 6.93618 14.1196 5.62475 13.8325 4.3776C13.5454 3.13046 12.8632 2.02029 11.8958 1.2261C10.9283 0.431916 9.73212 0 8.5 0C7.26788 0 6.07166 0.431916 5.10424 1.2261C4.13682 2.02029 3.45457 3.13046 3.1675 4.3776C2.88044 5.62475 3.00529 6.93618 3.52193 8.10043C4.03857 9.26468 4.91688 10.2139 6.01524 10.795C3.75608 11.4571 1.81182 13.0201 0.57336 15.2484C0.539354 15.304 0.516519 15.3663 0.506231 15.4314C0.495943 15.4965 0.498414 15.5631 0.513495 15.6272C0.528576 15.6913 0.555956 15.7515 0.593986 15.8043C0.632017 15.8571 0.679914 15.9013 0.734794 15.9343C0.789674 15.9674 0.850404 15.9885 0.913331 15.9964C0.976257 16.0044 1.04008 15.999 1.10096 15.9806C1.16184 15.9622 1.21851 15.9312 1.26758 15.8895C1.31665 15.8477 1.35709 15.796 1.38647 15.7376C2.89127 13.0315 5.54993 11.4163 8.5 11.4163C11.4501 11.4163 14.1087 13.0315 15.6135 15.7376C15.6429 15.796 15.6834 15.8477 15.7324 15.8895C15.7815 15.9312 15.8382 15.9622 15.899 15.9806C15.9599 15.999 16.0237 16.0044 16.0867 15.9964C16.1496 15.9885 16.2103 15.9674 16.2652 15.9343C16.3201 15.9013 16.368 15.8571 16.406 15.8043C16.444 15.7515 16.4714 15.6913 16.4865 15.6272C16.5016 15.5631 16.5041 15.4965 16.4938 15.4314C16.4835 15.3663 16.4606 15.304 16.4266 15.2484ZM3.95662 5.70899C3.95662 4.7737 4.22308 3.85942 4.72231 3.08175C5.22155 2.30409 5.93113 1.69797 6.76132 1.34005C7.59152 0.982127 8.50504 0.888479 9.38637 1.07094C10.2677 1.25341 11.0773 1.7038 11.7127 2.36515C12.3481 3.0265 12.7808 3.86911 12.9561 4.78643C13.1314 5.70375 13.0414 6.65458 12.6975 7.51867C12.3537 8.38277 11.7713 9.12132 11.0242 9.64094C10.277 10.1606 9.3986 10.4379 8.5 10.4379C7.29546 10.4364 6.14068 9.93769 5.28895 9.05117C4.43721 8.16466 3.95807 6.96272 3.95662 5.70899Z" fill="#5D5D5D"/>
</svg>
