<svg width="224" height="237" viewBox="0 0 224 237" fill="none" xmlns="http://www.w3.org/2000/svg">
<circle cx="112" cy="112" r="112" fill="url(#paint0_radial_1087_360)"/>
<path d="M57.0081 93.6045C60.7613 80.3244 69.1933 68.8511 80.7468 61.3037C92.3002 53.7563 106.195 50.6448 119.864 52.5438C133.532 54.4427 146.052 61.2239 155.111 71.6349C164.17 82.0458 169.155 95.3831 169.146 109.183V122.371H186.729V236.662H37.2708V122.371H151.562V109.183C151.568 99.6305 148.118 90.3981 141.848 83.1911C135.577 75.984 126.911 71.2891 117.45 69.9732C107.988 68.6574 98.3695 70.8095 90.3707 76.0321C82.3719 81.2547 76.533 89.1952 73.9321 98.3871L71.532 106.845L54.6168 102.062L57.0081 93.6045ZM54.8542 139.954V219.079H169.146V139.954H54.8542ZM85.625 170.725H138.375V188.308H85.625V170.725Z" fill="#111111"/>
<defs>
<radialGradient id="paint0_radial_1087_360" cx="0" cy="0" r="1" gradientUnits="userSpaceOnUse" gradientTransform="translate(112 112) rotate(90) scale(112)">
<stop offset="0.442708" stop-color="#015AB1"/>
<stop offset="1" stop-color="#015AB1" stop-opacity="0"/>
</radialGradient>
</defs>
</svg>
