<svg width="20" height="18" viewBox="0 0 20 18" fill="none" xmlns="http://www.w3.org/2000/svg">
<path d="M10 18V14.4878L14 13.6098L10 12.7317V9.21951L20 13.6098L10 18ZM2 17.122C1.45 17.122 0.979333 16.9501 0.588 16.6065C0.196667 16.2629 0.000666667 15.8494 0 15.3659V12.0293C0.8 12.0293 1.5 11.8062 2.1 11.3602C2.7 10.9141 3 10.3469 3 9.65854C3 8.97073 2.7 8.4038 2.1 7.95776C1.5 7.51171 0.8 7.28839 0 7.28781V3.95122C0 3.46829 0.196 3.05502 0.588 2.71141C0.98 2.3678 1.45067 2.19571 2 2.19512H6C6 1.58049 6.24167 1.06098 6.725 0.636585C7.20833 0.212195 7.8 0 8.5 0C9.2 0 9.79167 0.212195 10.275 0.636585C10.7583 1.06098 11 1.58049 11 2.19512H15C15.55 2.19512 16.021 2.36722 16.413 2.71141C16.805 3.05561 17.0007 3.46888 17 3.95122V10.3171L15 9.43902V3.95122H9V2.19512C9 2.07805 8.95 1.97561 8.85 1.8878C8.75 1.8 8.63333 1.7561 8.5 1.7561C8.36667 1.7561 8.25 1.8 8.15 1.8878C8.05 1.97561 8 2.07805 8 2.19512V3.95122H2V5.88293C2.9 6.17561 3.625 6.66585 4.175 7.35366C4.725 8.04146 5 8.80976 5 9.65854C5 10.4927 4.725 11.2537 4.175 11.9415C3.625 12.6293 2.9 13.1268 2 13.4341V15.3659H4.125C4.40833 14.7073 4.89167 14.1328 5.575 13.6422C6.25833 13.1517 7.06667 12.8628 8 12.7756V14.5317C7.33333 14.6488 6.8 14.9233 6.4 15.3553C6 15.7873 5.8 16.3762 5.8 17.122H2Z" fill="#0026AB"/>
</svg>
