<svg width="17" height="18" viewBox="0 0 17 18" fill="none" xmlns="http://www.w3.org/2000/svg">
<path d="M2.38086 17.0633C2.07247 17.0574 1.76841 16.9896 1.48675 16.8639C1.20508 16.7381 0.951549 16.5571 0.741215 16.3315C0.530881 16.1059 0.368031 15.8403 0.262339 15.5505C0.156648 15.2607 0.110268 14.9527 0.125958 14.6446C0.0980881 12.7215 0.0916583 10.7982 0.0745087 8.87503C0.0734524 8.75657 0.119495 8.64255 0.202508 8.55804C0.28552 8.47354 0.398704 8.42547 0.517158 8.42441C0.635613 8.42336 0.749635 8.4694 0.834142 8.55241C0.918649 8.63542 0.966717 8.74861 0.967773 8.86706C0.985297 10.8322 0.974237 12.7977 1.02035 14.7626C1.04346 15.7513 1.79049 16.1753 2.67482 16.1674L13.8076 16.0681C14.0888 16.0725 14.3646 15.9909 14.5982 15.8343C14.8318 15.6777 15.012 15.4535 15.1148 15.1917C15.1962 14.8825 15.222 14.5614 15.1912 14.2432L15.1421 8.74067C15.141 8.62221 15.1871 8.50819 15.2701 8.42368C15.3531 8.33917 15.4663 8.29111 15.5847 8.29005C15.7032 8.28899 15.8172 8.33504 15.9017 8.41805C15.9862 8.50106 16.0343 8.61425 16.0354 8.7327C16.0531 10.7193 16.1469 12.7204 16.0886 14.706C16.0837 15.01 16.0183 15.31 15.8963 15.5885C15.7743 15.867 15.5981 16.1185 15.378 16.3283C15.1579 16.5381 14.8983 16.702 14.6143 16.8105C14.3302 16.919 14.0274 16.97 13.7235 16.9604L2.38086 17.0633Z" fill="#06396A"/>
<path d="M8.30002 1.11628C8.22618 1.04146 8.12621 0.998167 8.02112 0.995486C8.00772 0.995606 7.99611 0.995709 7.98266 0.990469C7.96922 0.985229 7.95854 0.990684 7.94609 0.996155C7.84079 1.00067 7.74132 1.04573 7.66849 1.12191L4.42032 4.42852C4.33972 4.51349 4.29571 4.62671 4.29777 4.7438C4.29983 4.8609 4.3478 4.9725 4.43135 5.05457C4.5149 5.13664 4.62733 5.18262 4.74445 5.18259C4.86156 5.18256 4.97398 5.13654 5.05749 5.05443L7.5505 2.51746L7.63607 12.1129C7.63713 12.2314 7.68519 12.3445 7.7697 12.4276C7.85421 12.5106 7.96823 12.5566 8.08668 12.5556C8.20514 12.5545 8.31832 12.5064 8.40133 12.4219C8.48435 12.3374 8.53039 12.2234 8.52933 12.1049L8.44377 2.50949L10.9816 5.0016C11.0666 5.08221 11.1798 5.12622 11.2969 5.12416C11.414 5.1221 11.5256 5.07413 11.6077 4.99058C11.6897 4.90703 11.7357 4.79459 11.7357 4.67748C11.7357 4.56036 11.6896 4.44794 11.6075 4.36443L8.30002 1.11628Z" fill="#06396A"/>
</svg>
