<svg width="18" height="18" viewBox="0 0 18 18" fill="none" xmlns="http://www.w3.org/2000/svg">
<path d="M5.25 10.5C5.64782 10.5 6.02936 10.342 6.31066 10.0607C6.59196 9.77936 6.75 9.39782 6.75 9C6.75 8.60218 6.59196 8.22064 6.31066 7.93934C6.02936 7.65804 5.64782 7.5 5.25 7.5C4.85218 7.5 4.47064 7.65804 4.18934 7.93934C3.90804 8.22064 3.75 8.60218 3.75 9C3.75 9.39782 3.90804 9.77936 4.18934 10.0607C4.47064 10.342 4.85218 10.5 5.25 10.5ZM10.5 9C10.5 9.39782 10.342 9.77936 10.0607 10.0607C9.77936 10.342 9.39782 10.5 9 10.5C8.60218 10.5 8.22064 10.342 7.93934 10.0607C7.65804 9.77936 7.5 9.39782 7.5 9C7.5 8.60218 7.65804 8.22064 7.93934 7.93934C8.22064 7.65804 8.60218 7.5 9 7.5C9.39782 7.5 9.77936 7.65804 10.0607 7.93934C10.342 8.22064 10.5 8.60218 10.5 9ZM12.75 10.5C13.1478 10.5 13.5294 10.342 13.8107 10.0607C14.092 9.77936 14.25 9.39782 14.25 9C14.25 8.60218 14.092 8.22064 13.8107 7.93934C13.5294 7.65804 13.1478 7.5 12.75 7.5C12.3522 7.5 11.9706 7.65804 11.6893 7.93934C11.408 8.22064 11.25 8.60218 11.25 9C11.25 9.39782 11.408 9.77936 11.6893 10.0607C11.9706 10.342 12.3522 10.5 12.75 10.5Z" fill="#0A6FD2"/>
<path fill-rule="evenodd" clip-rule="evenodd" d="M18 9C18 13.9703 13.9703 18 9 18C4.02975 18 0 13.9703 0 9C0 4.02975 4.02975 0 9 0C13.9703 0 18 4.02975 18 9ZM16.5 9C16.5 13.1423 13.1423 16.5 9 16.5C4.85775 16.5 1.5 13.1423 1.5 9C1.5 4.85775 4.85775 1.5 9 1.5C13.1423 1.5 16.5 4.85775 16.5 9Z" fill="#0A6FD2"/>
</svg>
