<svg width="406" height="752" viewBox="0 0 406 752" fill="none" xmlns="http://www.w3.org/2000/svg">
<path d="M4 581L7.4641 587H0.535898L4 581Z" fill="black" fill-opacity="0.08"/>
<path d="M57 581L60.4641 587H53.5359L57 581Z" fill="black" fill-opacity="0.08"/>
<path d="M110 581L113.464 587H106.536L110 581Z" fill="black" fill-opacity="0.08"/>
<path d="M163 581L166.464 587H159.536L163 581Z" fill="black" fill-opacity="0.08"/>
<path d="M216 581L219.464 587H212.536L216 581Z" fill="black" fill-opacity="0.08"/>
<path d="M269 581L272.464 587H265.536L269 581Z" fill="black" fill-opacity="0.08"/>
<path d="M322 581L325.464 587H318.536L322 581Z" fill="black" fill-opacity="0.08"/>
<path d="M375 581L378.464 587H371.536L375 581Z" fill="black" fill-opacity="0.08"/>
<path d="M4 664L7.4641 670H0.535898L4 664Z" fill="black" fill-opacity="0.08"/>
<path d="M57 664L60.4641 670H53.5359L57 664Z" fill="black" fill-opacity="0.08"/>
<path d="M110 664L113.464 670H106.536L110 664Z" fill="black" fill-opacity="0.08"/>
<path d="M163 664L166.464 670H159.536L163 664Z" fill="black" fill-opacity="0.08"/>
<path d="M216 664L219.464 670H212.536L216 664Z" fill="black" fill-opacity="0.08"/>
<path d="M269 664L272.464 670H265.536L269 664Z" fill="black" fill-opacity="0.08"/>
<path d="M322 664L325.464 670H318.536L322 664Z" fill="black" fill-opacity="0.08"/>
<path d="M375 664L378.464 670H371.536L375 664Z" fill="black" fill-opacity="0.08"/>
<path d="M4 0L7.4641 6H0.535898L4 0Z" fill="black" fill-opacity="0.1"/>
<path d="M57 0L60.4641 6H53.5359L57 0Z" fill="black" fill-opacity="0.1"/>
<path d="M110 0L113.464 6H106.536L110 0Z" fill="black" fill-opacity="0.1"/>
<path d="M163 0L166.464 6H159.536L163 0Z" fill="black" fill-opacity="0.1"/>
<path d="M216 0L219.464 6H212.536L216 0Z" fill="black" fill-opacity="0.1"/>
<path d="M269 0L272.464 6H265.536L269 0Z" fill="black" fill-opacity="0.1"/>
<path d="M322 0L325.464 6H318.536L322 0Z" fill="black" fill-opacity="0.1"/>
<path d="M375 0L378.464 6H371.536L375 0Z" fill="black" fill-opacity="0.1"/>
<path d="M4 83L7.4641 89H0.535898L4 83Z" fill="black" fill-opacity="0.1"/>
<path d="M57 83L60.4641 89H53.5359L57 83Z" fill="black" fill-opacity="0.1"/>
<path d="M110 83L113.464 89H106.536L110 83Z" fill="black" fill-opacity="0.1"/>
<path d="M163 83L166.464 89H159.536L163 83Z" fill="black" fill-opacity="0.1"/>
<path d="M216 83L219.464 89H212.536L216 83Z" fill="black" fill-opacity="0.1"/>
<path d="M269 83L272.464 89H265.536L269 83Z" fill="black" fill-opacity="0.1"/>
<path d="M322 83L325.464 89H318.536L322 83Z" fill="black" fill-opacity="0.1"/>
<path d="M375 83L378.464 89H371.536L375 83Z" fill="black" fill-opacity="0.1"/>
<path d="M4 166L7.4641 172H0.535898L4 166Z" fill="black" fill-opacity="0.1"/>
<path d="M57 166L60.4641 172H53.5359L57 166Z" fill="black" fill-opacity="0.1"/>
<path d="M110 166L113.464 172H106.536L110 166Z" fill="black" fill-opacity="0.1"/>
<path d="M163 166L166.464 172H159.536L163 166Z" fill="black" fill-opacity="0.1"/>
<path d="M216 166L219.464 172H212.536L216 166Z" fill="black" fill-opacity="0.1"/>
<path d="M269 166L272.464 172H265.536L269 166Z" fill="black" fill-opacity="0.1"/>
<path d="M322 166L325.464 172H318.536L322 166Z" fill="black" fill-opacity="0.1"/>
<path d="M375 166L378.464 172H371.536L375 166Z" fill="black" fill-opacity="0.1"/>
<path d="M4 249L7.4641 255H0.535898L4 249Z" fill="black" fill-opacity="0.1"/>
<path d="M57 249L60.4641 255H53.5359L57 249Z" fill="black" fill-opacity="0.1"/>
<path d="M110 249L113.464 255H106.536L110 249Z" fill="black" fill-opacity="0.1"/>
<path d="M163 249L166.464 255H159.536L163 249Z" fill="black" fill-opacity="0.1"/>
<path d="M216 249L219.464 255H212.536L216 249Z" fill="black" fill-opacity="0.1"/>
<path d="M269 249L272.464 255H265.536L269 249Z" fill="black" fill-opacity="0.1"/>
<path d="M322 249L325.464 255H318.536L322 249Z" fill="black" fill-opacity="0.1"/>
<path d="M375 249L378.464 255H371.536L375 249Z" fill="black" fill-opacity="0.1"/>
<path d="M4 332L7.4641 338H0.535898L4 332Z" fill="black" fill-opacity="0.1"/>
<path d="M57 332L60.4641 338H53.5359L57 332Z" fill="black" fill-opacity="0.1"/>
<path d="M110 332L113.464 338H106.536L110 332Z" fill="black" fill-opacity="0.1"/>
<path d="M163 332L166.464 338H159.536L163 332Z" fill="black" fill-opacity="0.1"/>
<path d="M216 332L219.464 338H212.536L216 332Z" fill="black" fill-opacity="0.1"/>
<path d="M269 332L272.464 338H265.536L269 332Z" fill="black" fill-opacity="0.1"/>
<path d="M322 332L325.464 338H318.536L322 332Z" fill="black" fill-opacity="0.1"/>
<path d="M375 332L378.464 338H371.536L375 332Z" fill="black" fill-opacity="0.1"/>
<path d="M4 415L7.4641 421H0.535898L4 415Z" fill="black" fill-opacity="0.1"/>
<path d="M57 415L60.4641 421H53.5359L57 415Z" fill="black" fill-opacity="0.1"/>
<path d="M110 415L113.464 421H106.536L110 415Z" fill="black" fill-opacity="0.1"/>
<path d="M163 415L166.464 421H159.536L163 415Z" fill="black" fill-opacity="0.1"/>
<path d="M216 415L219.464 421H212.536L216 415Z" fill="black" fill-opacity="0.1"/>
<path d="M269 415L272.464 421H265.536L269 415Z" fill="black" fill-opacity="0.1"/>
<path d="M322 415L325.464 421H318.536L322 415Z" fill="black" fill-opacity="0.1"/>
<path d="M375 415L378.464 421H371.536L375 415Z" fill="black" fill-opacity="0.1"/>
<path d="M4 498L7.4641 504H0.535898L4 498Z" fill="black" fill-opacity="0.1"/>
<path d="M57 498L60.4641 504H53.5359L57 498Z" fill="black" fill-opacity="0.1"/>
<path d="M110 498L113.464 504H106.536L110 498Z" fill="black" fill-opacity="0.1"/>
<path d="M163 498L166.464 504H159.536L163 498Z" fill="black" fill-opacity="0.1"/>
<path d="M216 498L219.464 504H212.536L216 498Z" fill="black" fill-opacity="0.1"/>
<path d="M269 498L272.464 504H265.536L269 498Z" fill="black" fill-opacity="0.1"/>
<path d="M322 498L325.464 504H318.536L322 498Z" fill="black" fill-opacity="0.1"/>
<path d="M375 498L378.464 504H371.536L375 498Z" fill="black" fill-opacity="0.1"/>
<path d="M4 744L7.4641 750H0.535898L4 744Z" fill="black" fill-opacity="0.1"/>
<path d="M57 744L60.4641 750H53.5359L57 744Z" fill="black" fill-opacity="0.1"/>
<path d="M110 744L113.464 750H106.536L110 744Z" fill="black" fill-opacity="0.1"/>
<path d="M163 744L166.464 750H159.536L163 744Z" fill="black" fill-opacity="0.1"/>
<path d="M216 744L219.464 750H212.536L216 744Z" fill="black" fill-opacity="0.1"/>
<path d="M269 744L272.464 750H265.536L269 744Z" fill="black" fill-opacity="0.1"/>
<path d="M322 744L325.464 750H318.536L322 744Z" fill="black" fill-opacity="0.1"/>
<path d="M375 744L378.464 750H371.536L375 744Z" fill="black" fill-opacity="0.1"/>
</svg>
