<svg width="187" height="186" viewBox="0 0 187 186" fill="none" xmlns="http://www.w3.org/2000/svg">
<circle cx="93.5" cy="93" r="93" fill="#F3F3F3"/>
<path d="M49.2986 142.657C45.2588 138.379 42.1349 133.322 40.1182 127.795C38.1015 122.268 37.2346 116.387 37.5705 110.513C37.5705 85.7969 49.0945 78.1084 58.3553 71.9316L58.3597 71.9273C62.0266 69.89 65.227 67.1084 67.7552 63.761C69.1409 61.5327 69.332 59.2305 69.332 44.8136C69.1974 42.1269 69.6148 39.4411 70.5583 36.9219C71.5019 34.4028 72.9517 32.1036 74.8182 30.1665C78.4253 26.7862 83.2018 24.9351 88.1448 25.0017C97.8357 25.0017 104.586 31.1655 106.593 41.9424C107.331 49.3528 107.309 56.8241 106.536 64.2302H120.84C125.251 64.2348 129.48 65.989 132.599 69.108C135.718 72.2269 137.472 76.4558 137.477 80.8667C137.5 83.4901 136.957 86.0877 135.883 88.4813C139.453 91.4655 141.821 95.8223 141.821 100.818V100.848C141.881 104.688 140.589 108.427 138.172 111.412C140.517 114.235 141.807 117.785 141.821 121.455C141.871 123.787 141.413 126.102 140.478 128.24L140.435 128.344C139.524 130.452 138.15 132.328 136.417 133.834C137.154 135.89 137.513 138.062 137.477 140.246V140.254C137.477 144.285 136.043 148.191 133.016 151.075C132.655 151.422 132.277 151.748 131.878 152.052C128.827 154.551 124.928 155.773 120.997 155.462H104.082C103.856 155.462 103.635 155.462 103.409 155.449H88.1752C71.0217 155.449 57.934 151.157 49.303 142.657H49.2986ZM89.8302 146.761H90.9248C90.0654 144.7 89.6239 142.488 89.626 140.254C89.626 137.926 90.4383 134.416 92.5493 131.332C90.2689 127.853 89.626 123.913 89.626 121.455C89.626 118.848 90.5556 114.861 92.9707 111.416C91.6007 109.526 90.6298 107.378 90.1168 105.101C87.4976 113.123 82.7759 121.967 74.3186 129.278C73.8871 129.651 73.3863 129.936 72.8447 130.116C72.3031 130.295 71.7315 130.367 71.1624 130.326C70.5932 130.285 70.0378 130.132 69.5277 129.876C69.0176 129.62 68.5629 129.266 68.1896 128.835C67.8162 128.403 67.5316 127.902 67.3518 127.361C67.172 126.819 67.1006 126.248 67.1418 125.678C67.1829 125.109 67.3357 124.554 67.5916 124.044C67.8474 123.534 68.2011 123.079 68.6327 122.706C77.7285 114.844 81.7334 104.74 83.4448 96.4087C84.2962 92.256 84.5655 88.6029 84.6177 86.0054C84.6456 84.69 84.6166 83.3741 84.5308 82.0612V82.0395C84.4609 81.3398 84.562 80.6335 84.8253 79.9814C85.0886 79.3293 85.5063 78.7509 86.0425 78.2959C86.5787 77.8409 87.2173 77.5229 87.9036 77.3691C88.5898 77.2154 89.3031 77.2306 89.9822 77.4134C90.3644 75.4153 91.0942 73.1783 92.3061 71.115C93.5996 68.8532 95.4939 66.9934 97.7792 65.7418C98.4308 58.3487 98.5177 50.9166 98.0485 43.5105C96.2111 33.6632 90.2298 33.6806 88.0579 33.6892H87.9015C85.3153 33.6656 82.8162 34.6233 80.9081 36.3693C79.8822 37.5112 79.0976 38.8485 78.6012 40.301C78.1048 41.7536 77.907 43.2914 78.0195 44.8223C78.0195 59.3391 78.0195 63.7219 75.1266 68.3654C71.9802 72.7857 67.9102 76.4689 63.1986 79.1596L63.1682 79.1813C54.4938 84.9716 46.258 90.4707 46.258 110.513C45.9186 115.232 46.5532 119.97 48.1225 124.433C49.6917 128.897 52.162 132.99 55.3799 136.458C62.5905 143.547 74.1275 146.961 89.8302 146.761ZM120.845 146.761C123.837 146.761 126.074 145.927 127.399 144.39C128.268 143.365 128.789 141.975 128.789 140.254C128.789 139.169 128.681 138.308 128.511 137.631C127.034 137.935 125.466 138.091 123.82 138.091H105.711C103.274 138.091 101.141 137.657 99.3039 136.918C99.164 137.177 99.0379 137.442 98.926 137.713C98.4568 138.834 98.3178 139.811 98.3178 140.254C98.3178 142.044 98.8869 143.751 99.8382 144.92C100.637 145.897 101.806 146.653 103.617 146.761H120.845ZM130.922 116.333C128.634 117.1 126.233 117.48 123.82 117.458H105.207C103.296 117.458 101.541 117.154 99.9511 116.598C99.5733 117.172 99.256 117.784 99.0042 118.423C98.4829 119.726 98.3135 120.877 98.3135 121.455C98.3135 122.714 98.7044 124.886 99.8338 126.602C100.802 128.066 102.414 129.404 105.715 129.404H123.82C126.083 129.404 127.816 128.969 129.119 128.327C130.601 127.584 131.786 126.358 132.477 124.852C132.898 123.87 133.133 122.732 133.133 121.455C133.091 120.139 132.713 118.856 132.034 117.728L131.986 117.65C131.68 117.177 131.325 116.737 130.926 116.338L130.922 116.333ZM132.238 104.683C132.351 104.479 132.455 104.266 132.547 104.054C132.925 103.107 133.133 102.029 133.133 100.822C133.07 99.3203 132.58 97.8678 131.721 96.6345C131.276 96.0288 130.751 95.4854 130.162 95.0187C127.556 96.6389 124.393 97.5033 120.84 97.5033H104.082C102.525 97.5105 100.979 97.2337 99.5211 96.6867C99.356 96.9907 99.2083 97.2991 99.0737 97.6162C98.6278 98.6298 98.3702 99.7161 98.3135 100.822C98.3135 102.976 98.9911 105.048 100.138 106.491C101.202 107.815 102.779 108.771 105.207 108.771H123.82C126.513 108.771 128.459 108.159 129.823 107.303C130.831 106.643 131.66 105.743 132.238 104.683ZM104.073 72.9177C102.019 72.922 100.755 73.895 99.7947 75.5239C98.881 77.1606 98.3745 78.9931 98.3178 80.8667C98.3178 82.5043 98.9086 84.7153 100.073 86.4137C101.176 88.0209 102.497 88.8158 104.086 88.8158H120.845C123.842 88.8158 125.701 87.8254 126.839 86.6005L126.882 86.5527C127.437 85.8896 127.884 85.1435 128.207 84.3417C128.581 83.347 128.794 82.1872 128.794 80.8667C128.791 78.7584 127.952 76.7373 126.461 75.2469C124.97 73.7565 122.948 72.9188 120.84 72.9177H104.073Z" fill="#015AB1"/>
</svg>
