<svg width="16" height="16" viewBox="0 0 16 16" fill="none" xmlns="http://www.w3.org/2000/svg">
<path d="M14.6667 0H1.33333C0.979711 0 0.640573 0.134866 0.390524 0.374928C0.140476 0.61499 0 0.940584 0 1.28008V5.98199C0 13.1513 6.31833 15.5298 7.58333 15.9338C7.85351 16.0221 8.14649 16.0221 8.41667 15.9338C9.68333 15.5298 16 13.1513 16 5.98199V1.28008C16 0.940584 15.8595 0.61499 15.6095 0.374928C15.3594 0.134866 15.0203 0 14.6667 0ZM14.6667 5.98359C14.6667 12.2576 9.1375 14.3537 8 14.7186C6.8725 14.3577 1.33333 12.2632 1.33333 5.98359V1.28008H14.6667V5.98359Z" fill="black"/>
</svg>
