<svg width="31" height="25" viewBox="0 0 31 25" fill="none" xmlns="http://www.w3.org/2000/svg">
<path d="M3.84796 0.133301C3.05231 0.133301 2.28925 0.449371 1.72664 1.01198C1.16403 1.57459 0.847961 2.33765 0.847961 3.1333V9.1333C1.64361 9.1333 2.40667 9.44937 2.96928 10.012C3.53189 10.5746 3.84796 11.3377 3.84796 12.1333C3.84796 12.929 3.53189 13.692 2.96928 14.2546C2.40667 14.8172 1.64361 15.1333 0.847961 15.1333V21.1333C0.847961 21.9289 1.16403 22.692 1.72664 23.2546C2.28925 23.8172 3.05231 24.1333 3.84796 24.1333H27.848C28.6436 24.1333 29.4067 23.8172 29.9693 23.2546C30.5319 22.692 30.848 21.9289 30.848 21.1333V15.1333C30.0523 15.1333 29.2893 14.8172 28.7266 14.2546C28.164 13.692 27.848 12.929 27.848 12.1333C27.848 11.3377 28.164 10.5746 28.7266 10.012C29.2893 9.44937 30.0523 9.1333 30.848 9.1333V3.1333C30.848 2.33765 30.5319 1.57459 29.9693 1.01198C29.4067 0.449371 28.6436 0.133301 27.848 0.133301H3.84796ZM21.098 4.6333L23.348 6.8833L10.598 19.6333L8.34796 17.3833L21.098 4.6333ZM11.063 4.6933C12.533 4.6933 13.718 5.8783 13.718 7.3483C13.718 8.05245 13.4382 8.72776 12.9403 9.22567C12.4424 9.72358 11.7671 10.0033 11.063 10.0033C9.59296 10.0033 8.40796 8.8183 8.40796 7.3483C8.40796 6.64415 8.68768 5.96884 9.18559 5.47093C9.6835 4.97302 10.3588 4.6933 11.063 4.6933ZM20.633 14.2633C22.103 14.2633 23.288 15.4483 23.288 16.9183C23.288 17.6224 23.0082 18.2978 22.5103 18.7957C22.0124 19.2936 21.3371 19.5733 20.633 19.5733C19.163 19.5733 17.978 18.3883 17.978 16.9183C17.978 16.2141 18.2577 15.5388 18.7556 15.0409C19.2535 14.543 19.9288 14.2633 20.633 14.2633Z" fill="#015AB1"/>
</svg>
