<svg width="17" height="16" viewBox="0 0 17 16" fill="none" xmlns="http://www.w3.org/2000/svg">
<path d="M15.22 2.90909H2.42C2.25026 2.90909 2.08748 2.83247 1.96745 2.69608C1.84743 2.55969 1.78 2.3747 1.78 2.18182C1.78 1.98893 1.84743 1.80395 1.96745 1.66756C2.08748 1.53117 2.25026 1.45455 2.42 1.45455H13.3C13.4697 1.45455 13.6325 1.37792 13.7525 1.24153C13.8726 1.10514 13.94 0.920157 13.94 0.727273C13.94 0.534388 13.8726 0.349404 13.7525 0.213013C13.6325 0.0766233 13.4697 0 13.3 0H2.42C1.91078 0 1.42242 0.22987 1.06236 0.63904C0.702285 1.04821 0.5 1.60316 0.5 2.18182V13.8182C0.5 14.3968 0.702285 14.9518 1.06236 15.361C1.42242 15.7701 1.91078 16 2.42 16H15.22C15.5595 16 15.885 15.8468 16.1251 15.574C16.3651 15.3012 16.5 14.9312 16.5 14.5455V4.36364C16.5 3.97787 16.3651 3.6079 16.1251 3.33512C15.885 3.06234 15.5595 2.90909 15.22 2.90909ZM15.22 14.5455H2.42C2.25026 14.5455 2.08748 14.4688 1.96745 14.3324C1.84743 14.1961 1.78 14.0111 1.78 13.8182V4.23909C1.9855 4.32187 2.20197 4.364 2.42 4.36364H15.22V14.5455ZM11.38 9.09091C11.38 8.87515 11.4363 8.66423 11.5418 8.48483C11.6473 8.30543 11.7972 8.16561 11.9726 8.08304C12.148 8.00047 12.3411 7.97887 12.5273 8.02096C12.7135 8.06306 12.8846 8.16695 13.0188 8.31952C13.1531 8.47209 13.2445 8.66647 13.2816 8.87808C13.3186 9.0897 13.2996 9.30904 13.2269 9.50838C13.1543 9.70772 13.0312 9.8781 12.8733 9.99797C12.7155 10.1178 12.5299 10.1818 12.34 10.1818C12.0854 10.1818 11.8412 10.0669 11.6612 9.8623C11.4811 9.65771 11.38 9.38024 11.38 9.09091Z" fill="#5D5D5D"/>
</svg>
