<svg width="25" height="24" viewBox="0 0 25 24" fill="none" xmlns="http://www.w3.org/2000/svg">
<circle cx="12.1715" cy="11.5" r="11.5" fill="#1480EA"/>
<path d="M16.3673 13.515C16.3673 16.0298 14.7842 17.6129 12.2694 17.6129C9.75461 17.6129 8.17151 16.0298 8.17151 13.515C8.17151 10.8163 11.1092 7.17317 12.0102 6.11938C12.0422 6.08194 12.082 6.05189 12.1268 6.03128C12.1716 6.01067 12.2203 6 12.2696 6C12.3189 6 12.3676 6.01067 12.4123 6.03128C12.4571 6.05189 12.4969 6.08194 12.529 6.11938C13.4296 7.17317 16.3673 10.8163 16.3673 13.515Z" stroke="black" stroke-width="0.872705" stroke-miterlimit="10"/>
<path d="M14.7738 13.7427C14.7738 14.2861 14.5579 14.8073 14.1737 15.1915C13.7894 15.5758 13.2683 15.7916 12.7249 15.7916" stroke="black" stroke-width="0.872705" stroke-linecap="round" stroke-linejoin="round"/>
</svg>
